<svg width="115" height="69" viewBox="0 0 115 69" fill="none" xmlns="http://www.w3.org/2000/svg">
<g clip-path="url(#clip0_18_827)">
<path d="M12.1132 41.3278L10.8036 37.7471H3.58075L2.27122 41.3278H0L5.98838 25.3604H8.396L14.3844 41.3278H12.1132ZM4.30713 35.76H10.0772L7.19219 27.8763L4.30713 35.76Z" fill="#0B0146"/>
<path d="M16.0827 41.3277V24.6753H18.0777V41.3277H16.0827Z" fill="#0B0146"/>
<path d="M29.045 29.9243H31.04V41.3311H29.045V39.6899C28.2334 40.9818 26.9955 41.6295 25.3279 41.6295C23.9808 41.6295 22.9032 41.209 22.0915 40.3647C21.2799 39.5204 20.8741 38.3777 20.8741 36.9332V29.9311H22.8691V36.8213C22.8691 37.7504 23.1214 38.4692 23.6261 38.9778C24.1309 39.4865 24.8265 39.7408 25.7132 39.7408C26.7056 39.7408 27.5104 39.4322 28.1208 38.8185C28.7313 38.2013 29.0382 37.2553 29.0382 35.9769V29.9311L29.045 29.9243Z" fill="#0B0146"/>
<path d="M46.4576 29.626C47.7433 29.626 48.7834 30.0396 49.578 30.8704C50.3726 31.6977 50.7716 32.8201 50.7716 34.2341V41.3277H48.7766V34.3019C48.7766 33.4203 48.5481 32.7353 48.0877 32.2471C47.6273 31.7622 47.0169 31.518 46.253 31.518C45.3971 31.518 44.7116 31.8029 44.2001 32.3725C43.6885 32.9422 43.4328 33.8136 43.4328 34.9835V41.3243H41.4378V34.2985C41.4378 33.4169 41.2195 32.7319 40.783 32.2437C40.3465 31.7588 39.7531 31.5146 39.0063 31.5146C38.1639 31.5146 37.4648 31.8029 36.9056 32.3827C36.3463 32.9625 36.0666 33.8272 36.0666 34.9835V41.3243H34.0717V29.9176H36.0666V31.4468C36.8476 30.2295 37.9866 29.6226 39.4837 29.6226C40.9808 29.6226 42.1539 30.2702 42.8564 31.5621C43.651 30.2702 44.8514 29.6226 46.4576 29.6226V29.626Z" fill="#0B0146"/>
<path d="M59.2597 29.6259C60.6068 29.6259 61.6844 30.0464 62.496 30.8907C63.3077 31.735 63.7135 32.8777 63.7135 34.3222V41.3243H61.7185V34.4341C61.7185 33.5084 61.4661 32.7896 60.9614 32.2776C60.4567 31.7689 59.761 31.5146 58.8744 31.5146C57.8786 31.5146 57.0772 31.8232 56.4667 32.4369C55.8563 33.0541 55.5494 34.0001 55.5494 35.2784V41.3243H53.5544V29.9175H55.5494V31.5587C56.361 30.2668 57.5989 29.6191 59.2665 29.6191L59.2597 29.6259Z" fill="#0B0146"/>
<path d="M66.486 41.3277V29.9209H68.4809V41.3277H66.486Z" fill="#0B0146"/>
<path d="M7.79922 52.7344C9.98518 52.7344 11.8028 53.5075 13.2488 55.0503C14.6947 56.5931 15.4177 58.4818 15.4177 60.7198C15.4177 62.9577 14.6947 64.8464 13.2488 66.3892C11.8028 67.9321 9.98859 68.7052 7.79922 68.7052H1.53802V52.7378H7.79922V52.7344ZM7.79922 66.6944C9.43613 66.6944 10.7729 66.1248 11.8131 64.9821C12.8532 63.8427 13.3715 62.4186 13.3715 60.7164C13.3715 59.0142 12.8532 57.59 11.8131 56.4507C10.7729 55.3114 9.43613 54.7384 7.79922 54.7384H3.66942V66.691H7.79922V66.6944Z" fill="#0B0146"/>
<path d="M27.4865 67.2675C26.31 68.4237 24.8777 69.0002 23.1965 69.0002C21.5152 69.0002 20.0863 68.4237 18.9166 67.2675C17.7469 66.1112 17.1603 64.6904 17.1603 63.0018C17.1603 61.3132 17.7469 59.8924 18.9166 58.7361C20.0863 57.5799 21.5118 57.0034 23.1965 57.0034C24.8811 57.0034 26.31 57.5833 27.4865 58.7361C28.6631 59.8924 29.253 61.3132 29.253 63.0018C29.253 64.6904 28.6631 66.1112 27.4865 67.2675ZM23.1965 67.0606C24.3423 67.0606 25.3074 66.6741 26.0883 65.8976C26.8693 65.1211 27.2581 64.1547 27.2581 63.0018C27.2581 61.8489 26.8693 60.8791 26.0883 60.106C25.3074 59.3295 24.3457 58.943 23.1965 58.943C22.0472 58.943 21.1094 59.3295 20.3284 60.106C19.5475 60.8825 19.1587 61.8489 19.1587 63.0018C19.1587 64.1547 19.5475 65.1245 20.3284 65.8976C21.1094 66.6741 22.0643 67.0606 23.1965 67.0606Z" fill="#0B0146"/>
<path d="M37.3284 56.9999C38.6755 56.9999 39.7531 57.4238 40.5647 58.2647C41.3764 59.109 41.7822 60.2518 41.7822 61.6962V68.6983H39.7872V61.8081C39.7872 60.8824 39.5349 60.1636 39.0301 59.6516C38.5254 59.1429 37.8297 58.8886 36.9431 58.8886C35.9473 58.8886 35.1459 59.1972 34.5354 59.8109C33.925 60.4281 33.6181 61.3741 33.6181 62.6525V68.6983H31.6231V57.2916H33.6181V58.9327C34.4297 57.6408 35.6676 56.9932 37.3353 56.9932L37.3284 56.9999Z" fill="#0B0146"/>
<path d="M54.0523 57.2984H56.0473V68.7051H54.0523V66.7418C53.0565 68.2474 51.6139 69.0001 49.7144 69.0001C48.1082 69.0001 46.7407 68.4169 45.6085 67.2538C44.4763 66.0908 43.9102 64.6734 43.9102 62.9983C43.9102 61.3233 44.4763 59.9059 45.6085 58.7429C46.7407 57.5798 48.1082 56.9966 49.7144 56.9966C51.6105 56.9966 53.0565 57.7493 54.0523 59.2549V57.2916V57.2984ZM49.9668 67.0843C51.1297 67.0843 52.1016 66.6944 52.8791 65.9111C53.6601 65.1278 54.0489 64.158 54.0489 63.0017C54.0489 61.8455 53.6601 60.8757 52.8791 60.0924C52.0982 59.3091 51.1263 58.9192 49.9668 58.9192C48.8073 58.9192 47.8559 59.3125 47.0749 60.0924C46.294 60.8757 45.9052 61.8455 45.9052 63.0017C45.9052 64.158 46.294 65.1278 47.0749 65.9111C47.8559 66.6944 48.8176 67.0843 49.9668 67.0843Z" fill="#0B0146"/>
<path d="M65.3163 59.2145H62.2641V65.396C62.2641 65.9589 62.3733 66.359 62.5983 66.5929C62.82 66.8303 63.161 66.949 63.618 66.9592C64.0784 66.9659 64.6411 66.9558 65.3163 66.9252V68.7054C63.5737 68.9326 62.2948 68.7936 61.4866 68.285C60.675 67.7763 60.2691 66.8133 60.2691 65.3994V59.2179H57.9979V57.3021H60.2691V54.7013L62.2641 54.1079V57.3021H65.3163V59.2179V59.2145Z" fill="#0B0146"/>
<path d="M68.689 55.2199C68.3071 55.2199 67.9865 55.091 67.7239 54.8333C67.4647 54.5756 67.3351 54.2636 67.3351 53.8974C67.3351 53.5312 67.4647 53.2159 67.7239 52.9514C67.9831 52.6869 68.3037 52.5513 68.689 52.5513C69.0744 52.5513 69.3711 52.6835 69.6302 52.9514C69.8894 53.2193 70.019 53.5346 70.019 53.8974C70.019 54.2602 69.8894 54.5756 69.6302 54.8333C69.3711 55.091 69.0573 55.2199 68.689 55.2199ZM67.6796 68.7018V57.295H69.6746V68.7018H67.6796Z" fill="#0B0146"/>
<path d="M82.4083 67.2675C81.2318 68.4237 79.7995 69.0002 78.1183 69.0002C76.437 69.0002 75.0081 68.4237 73.8384 67.2675C72.6687 66.1112 72.0822 64.6904 72.0822 63.0018C72.0822 61.3132 72.6687 59.8924 73.8384 58.7361C75.0081 57.5799 76.4336 57.0034 78.1183 57.0034C79.8029 57.0034 81.2318 57.5833 82.4083 58.7361C83.5849 59.8924 84.1749 61.3132 84.1749 63.0018C84.1749 64.6904 83.5849 66.1112 82.4083 67.2675ZM78.1183 67.0606C79.2641 67.0606 80.2292 66.6741 81.0102 65.8976C81.7911 65.1211 82.1799 64.1547 82.1799 63.0018C82.1799 61.8489 81.7911 60.8791 81.0102 60.106C80.2292 59.3295 79.2675 58.943 78.1183 58.943C76.969 58.943 76.0312 59.3295 75.2503 60.106C74.4693 60.8825 74.0806 61.8489 74.0806 63.0018C74.0806 64.1547 74.4693 65.1245 75.2503 65.8976C76.0312 66.6741 76.9861 67.0606 78.1183 67.0606Z" fill="#0B0146"/>
<path d="M92.2503 56.9999C93.5974 56.9999 94.675 57.4238 95.4866 58.2647C96.2983 59.109 96.7041 60.2518 96.7041 61.6962V68.6983H94.7091V61.8081C94.7091 60.8824 94.4567 60.1636 93.952 59.6516C93.4473 59.1429 92.7516 58.8886 91.865 58.8886C90.8692 58.8886 90.0678 59.1972 89.4573 59.8109C88.8469 60.4281 88.54 61.3741 88.54 62.6525V68.6983H86.545V57.2916H88.54V58.9327C89.3516 57.6408 90.5895 56.9932 92.2571 56.9932L92.2503 56.9999Z" fill="#0B0146"/>
<path d="M78.0262 64.7036C77.6749 64.7036 77.3271 64.551 77.0918 64.256C76.6826 63.744 76.7678 62.998 77.2828 62.5877C77.617 62.3233 110.751 35.9223 112.541 16.5233C112.92 12.4102 111.883 9.01603 109.37 6.14399C106.164 2.4819 102.42 1.48499 98.2353 3.17702C93.6451 5.03519 89.4028 9.86034 87.0804 14.5431C89.7233 18.2018 91.5478 21.8096 92.0218 23.5356C92.4788 25.1971 92.0048 26.8382 90.7532 27.9301C89.5562 28.9745 87.9159 29.2491 86.4734 28.6455C85.2457 28.1335 83.145 26.5432 82.8653 21.6435C82.7528 19.6904 83.3087 17.3032 84.3624 14.8381C81.7024 11.3727 78.3297 8.04286 74.824 6.734C72.2902 5.78796 70.0156 6.01175 67.8773 7.42573C64.5148 9.64333 62.6904 12.2509 62.4619 15.1772C62.0049 21.0433 67.9592 26.5297 68.0206 26.5839C68.5082 27.0247 68.5423 27.7775 68.099 28.259C67.6557 28.7439 66.902 28.7778 66.4143 28.337C66.1347 28.0827 59.5427 22.03 60.0815 15.0042C60.3646 11.3082 62.5437 8.09372 66.5576 5.44887C69.3437 3.61104 72.4061 3.2957 75.6663 4.51301C79.288 5.86595 82.7221 9.04655 85.5083 12.4882C88.1512 7.64952 92.5027 2.93627 97.335 0.979761C100.933 -0.474905 106.253 -1.031 111.17 4.58421C114.093 7.92418 115.355 12.0135 114.918 16.7403C113.036 37.1497 80.1678 63.3405 78.7696 64.4459C78.5514 64.6189 78.2888 64.7036 78.0262 64.7036ZM85.9959 17.1133C85.4469 18.7138 85.1706 20.2261 85.2457 21.5078C85.3957 24.1086 86.1971 25.9566 87.3941 26.4585C88.1069 26.7568 88.7821 26.4924 89.1777 26.1465C89.4403 25.9159 90.02 25.2649 89.7165 24.1629C89.3448 22.8031 87.9807 20.06 85.9959 17.1133Z" fill="#9BC742"/>
</g>
<defs>
<clipPath id="clip0_18_827">
<rect width="115" height="69" fill="white"/>
</clipPath>
</defs>
</svg>
