<svg width="239" height="143" viewBox="0 0 239 143" fill="none" xmlns="http://www.w3.org/2000/svg">
<g clip-path="url(#clip0_18_844)">
<path d="M25.1743 85.6495L22.4528 78.2286H7.44173L4.72018 85.6495H0L12.4454 52.5576H17.4491L29.8945 85.6495H25.1743ZM8.95134 74.1106H20.9432L14.9472 57.7719L8.95134 74.1106Z" fill="#0B0146"/>
<path d="M33.424 85.6496V51.1382H37.5701V85.6496H33.424Z" fill="#0B0146"/>
<path d="M60.363 62.0166H64.5091V85.6567H60.363V82.2554C58.6762 84.9329 56.1035 86.2751 52.6378 86.2751C49.8383 86.2751 47.5987 85.4037 45.9119 83.6539C44.2251 81.9041 43.3817 79.5358 43.3817 76.5422V62.0307H47.5278V76.3103C47.5278 78.2358 48.0523 79.7256 49.1012 80.7797C50.1501 81.8338 51.596 82.3608 53.4387 82.3608C55.5011 82.3608 57.1737 81.7214 58.4424 80.4494C59.711 79.1704 60.3489 77.2098 60.3489 74.5605V62.0307L60.363 62.0166Z" fill="#0B0146"/>
<path d="M96.5511 61.3981C99.223 61.3981 101.385 62.2555 103.036 63.9772C104.687 65.6919 105.517 68.0179 105.517 70.9483V85.6496H101.371V71.0889C101.371 69.2618 100.896 67.8422 99.9389 66.8303C98.9821 65.8254 97.7134 65.3194 96.1259 65.3194C94.3469 65.3194 92.9224 65.9097 91.8593 67.0903C90.7962 68.2709 90.2646 70.0769 90.2646 72.5014V85.6426H86.1185V71.0819C86.1185 69.2547 85.6649 67.8352 84.7577 66.8233C83.8506 65.8184 82.6174 65.3124 81.0652 65.3124C79.3146 65.3124 77.8617 65.9097 76.6994 67.1114C75.5371 68.3131 74.9559 70.1051 74.9559 72.5014V85.6426H70.8098V62.0025H74.9559V65.1718C76.5789 62.649 78.9461 61.3911 82.0575 61.3911C85.1688 61.3911 87.6069 62.7333 89.0669 65.4108C90.7182 62.7333 93.213 61.3911 96.5511 61.3911V61.3981Z" fill="#0B0146"/>
<path d="M123.157 61.3983C125.957 61.3983 128.196 62.2697 129.883 64.0195C131.57 65.7694 132.413 68.1376 132.413 71.1312V85.6428H128.267V71.3631C128.267 69.4447 127.743 67.9549 126.694 66.8937C125.645 65.8396 124.199 65.3126 122.356 65.3126C120.287 65.3126 118.621 65.9521 117.353 67.224C116.084 68.503 115.446 70.4636 115.446 73.113V85.6428H111.3V62.0027H115.446V65.4039C117.133 62.7265 119.706 61.3843 123.171 61.3843L123.157 61.3983Z" fill="#0B0146"/>
<path d="M138.175 85.6498V62.0098H142.321V85.6498H138.175Z" fill="#0B0146"/>
<path d="M16.2088 109.29C20.7518 109.29 24.5294 110.892 27.5344 114.089C30.5394 117.287 32.042 121.201 32.042 125.839C32.042 130.477 30.5394 134.391 27.5344 137.589C24.5294 140.786 20.7589 142.388 16.2088 142.388H3.19641V109.297H16.2088V109.29ZM16.2088 138.221C19.6107 138.221 22.389 137.041 24.5506 134.672C26.7123 132.311 27.7896 129.36 27.7896 125.832C27.7896 122.304 26.7123 119.353 24.5506 116.992C22.389 114.63 19.6107 113.443 16.2088 113.443H7.62601V138.214H16.2088V138.221Z" fill="#0B0146"/>
<path d="M57.1241 139.409C54.679 141.805 51.7023 143 48.2082 143C44.7141 143 41.7445 141.805 39.3136 139.409C36.8826 137.013 35.6636 134.068 35.6636 130.569C35.6636 127.069 36.8826 124.125 39.3136 121.728C41.7445 119.332 44.707 118.137 48.2082 118.137C51.7094 118.137 54.679 119.339 57.1241 121.728C59.5692 124.125 60.7954 127.069 60.7954 130.569C60.7954 134.068 59.5692 137.013 57.1241 139.409ZM48.2082 138.98C50.5896 138.98 52.5953 138.179 54.2183 136.57C55.8413 134.961 56.6493 132.958 56.6493 130.569C56.6493 128.179 55.8413 126.169 54.2183 124.567C52.5953 122.958 50.5966 122.157 48.2082 122.157C45.8198 122.157 43.8707 122.958 42.2477 124.567C40.6247 126.177 39.8168 128.179 39.8168 130.569C39.8168 132.958 40.6247 134.968 42.2477 136.57C43.8707 138.179 45.8552 138.98 48.2082 138.98Z" fill="#0B0146"/>
<path d="M77.5782 118.13C80.3777 118.13 82.6173 119.009 84.3041 120.751C85.9909 122.501 86.8343 124.87 86.8343 127.863V142.375H82.6882V128.095C82.6882 126.177 82.1637 124.687 81.1148 123.626C80.0659 122.572 78.6201 122.045 76.7774 122.045C74.7078 122.045 73.0423 122.684 71.7737 123.956C70.505 125.235 69.8672 127.196 69.8672 129.845V142.375H65.7211V118.735H69.8672V122.136C71.554 119.458 74.1267 118.116 77.5924 118.116L77.5782 118.13Z" fill="#0B0146"/>
<path d="M112.335 118.748H116.481V142.389H112.335V138.32C110.265 141.44 107.267 143 103.32 143C99.9814 143 97.1394 141.791 94.7864 139.381C92.4333 136.97 91.2568 134.033 91.2568 130.561C91.2568 127.09 92.4333 124.153 94.7864 121.742C97.1394 119.332 99.9814 118.123 103.32 118.123C107.26 118.123 110.265 119.683 112.335 122.803V118.734V118.748ZM103.844 139.029C106.261 139.029 108.281 138.221 109.897 136.598C111.52 134.975 112.328 132.965 112.328 130.569C112.328 128.172 111.52 126.162 109.897 124.539C108.274 122.916 106.254 122.108 103.844 122.108C101.434 122.108 99.4569 122.923 97.8339 124.539C96.2109 126.162 95.4029 128.172 95.4029 130.569C95.4029 132.965 96.2109 134.975 97.8339 136.598C99.4569 138.221 101.456 139.029 103.844 139.029Z" fill="#0B0146"/>
<path d="M135.744 122.719H129.401V135.53C129.401 136.696 129.628 137.526 130.096 138.011C130.556 138.502 131.265 138.748 132.215 138.769C133.172 138.784 134.341 138.762 135.744 138.699V142.389C132.123 142.859 129.465 142.571 127.785 141.517C126.098 140.463 125.255 138.467 125.255 135.537V122.726H120.535V118.756H125.255V113.366L129.401 112.136V118.756H135.744V122.726V122.719Z" fill="#0B0146"/>
<path d="M142.754 114.441C141.96 114.441 141.294 114.174 140.748 113.64C140.209 113.106 139.94 112.459 139.94 111.7C139.94 110.941 140.209 110.288 140.748 109.739C141.287 109.191 141.953 108.91 142.754 108.91C143.554 108.91 144.171 109.184 144.71 109.739C145.248 110.295 145.518 110.948 145.518 111.7C145.518 112.452 145.248 113.106 144.71 113.64C144.171 114.174 143.519 114.441 142.754 114.441ZM140.656 142.382V118.741H144.802V142.382H140.656Z" fill="#0B0146"/>
<path d="M171.266 139.409C168.821 141.805 165.844 143 162.35 143C158.856 143 155.887 141.805 153.456 139.409C151.025 137.013 149.806 134.068 149.806 130.569C149.806 127.069 151.025 124.125 153.456 121.728C155.887 119.332 158.849 118.137 162.35 118.137C165.851 118.137 168.821 119.339 171.266 121.728C173.711 124.125 174.937 127.069 174.937 130.569C174.937 134.068 173.711 137.013 171.266 139.409ZM162.35 138.98C164.732 138.98 166.737 138.179 168.36 136.57C169.983 134.961 170.791 132.958 170.791 130.569C170.791 128.179 169.983 126.169 168.36 124.567C166.737 122.958 164.739 122.157 162.35 122.157C159.962 122.157 158.013 122.958 156.39 124.567C154.767 126.177 153.959 128.179 153.959 130.569C153.959 132.958 154.767 134.968 156.39 136.57C158.013 138.179 159.997 138.98 162.35 138.98Z" fill="#0B0146"/>
<path d="M191.72 118.13C194.52 118.13 196.759 119.009 198.446 120.751C200.133 122.501 200.976 124.87 200.976 127.863V142.375H196.83V128.095C196.83 126.177 196.306 124.687 195.257 123.626C194.208 122.572 192.762 122.045 190.919 122.045C188.85 122.045 187.184 122.684 185.916 123.956C184.647 125.235 184.009 127.196 184.009 129.845V142.375H179.863V118.735H184.009V122.136C185.696 119.458 188.269 118.116 191.734 118.116L191.72 118.13Z" fill="#0B0146"/>
<path d="M162.159 134.096C161.429 134.096 160.706 133.78 160.217 133.169C159.366 132.108 159.544 130.562 160.614 129.711C161.308 129.163 230.169 74.4481 233.89 34.2445C234.677 25.7203 232.522 18.6859 227.299 12.7337C220.637 5.14413 212.855 3.07809 204.159 6.58474C194.619 10.4357 185.802 20.4357 180.976 30.1405C186.468 37.723 190.26 45.2002 191.245 48.7771C192.195 52.2205 191.21 55.6218 188.609 57.8846C186.121 60.049 182.712 60.6182 179.714 59.3673C177.163 58.3062 172.797 55.0104 172.216 44.8558C171.982 40.8081 173.137 35.8608 175.327 30.7519C169.799 23.5699 162.79 16.669 155.504 13.9565C150.238 11.9958 145.511 12.4596 141.067 15.39C134.079 19.9859 130.287 25.39 129.812 31.4546C128.862 43.612 141.237 54.9823 141.364 55.0947C142.378 56.0083 142.449 57.5683 141.527 58.5662C140.606 59.5711 139.04 59.6414 138.026 58.7279C137.445 58.2008 123.745 45.6569 124.865 31.0962C125.453 23.4364 129.982 16.7744 138.324 11.2931C144.114 7.48425 150.479 6.8307 157.254 9.35353C164.781 12.1575 171.918 18.7491 177.708 25.8819C183.201 15.8539 192.245 6.0858 202.287 2.03101C209.765 -0.983736 220.821 -2.13622 231.041 9.5011C237.115 16.4231 239.737 24.8981 238.83 34.6942C234.918 76.992 166.61 131.271 163.704 133.562C163.25 133.921 162.705 134.096 162.159 134.096ZM178.722 35.4672C177.581 38.7842 177.007 41.9184 177.163 44.5747C177.475 49.9647 179.14 53.7946 181.628 54.8347C183.109 55.4531 184.512 54.905 185.334 54.1882C185.88 53.7103 187.085 52.3611 186.454 50.0772C185.682 47.2592 182.847 41.574 178.722 35.4672Z" fill="#9BC742"/>
</g>
<defs>
<clipPath id="clip0_18_844">
<rect width="239" height="143" fill="white"/>
</clipPath>
</defs>
</svg>
