<svg width="10" height="21" viewBox="0 0 10 21" fill="none" xmlns="http://www.w3.org/2000/svg">
<path d="M1.60201 20.9389C1.80812 20.9397 2.01177 20.8923 2.198 20.8004C2.38423 20.7084 2.54829 20.5742 2.67814 20.4076L9.34191 11.7918C9.54483 11.5348 9.65576 11.2125 9.65576 10.8799C9.65576 10.5473 9.54483 10.225 9.34191 9.96808L2.4436 1.35224C2.20942 1.059 1.87291 0.874581 1.50809 0.839572C1.14327 0.804564 0.78003 0.921828 0.49828 1.16557C0.216531 1.40931 0.0393491 1.75956 0.00571337 2.13927C-0.0279224 2.51898 0.0847427 2.89704 0.318924 3.19029L6.48601 10.8871L0.525874 18.5839C0.357165 18.7947 0.249997 19.0514 0.217051 19.3236C0.184106 19.5957 0.22676 19.8721 0.33997 20.1198C0.453179 20.3676 0.632204 20.5764 0.855861 20.7215C1.07952 20.8667 1.33845 20.9421 1.60201 20.9389Z" fill="#BBBBBB"/>
</svg>
