<svg width="280" height="211" viewBox="0 0 280 211" fill="none" xmlns="http://www.w3.org/2000/svg">
<g clip-path="url(#clip0_95_110)">
<path d="M263.153 118.945C263.153 156.05 246.196 189.188 219.625 211V71.3656H69.253V211C42.6787 189.188 25.7212 156.05 25.7212 118.945C25.7212 53.2521 78.8736 0 144.439 0C210.005 0 263.153 53.2521 263.153 118.945Z" fill="url(#paint0_linear_95_110)"/>
<path d="M143.449 144.728L116.867 118.09L122.547 112.399L142.129 132.022L165.808 95.6382L172.536 100.031L143.449 144.728Z" fill="#00CDA6"/>
<path d="M170.49 156.613H118.385V162.562H170.49V156.613Z" fill="#D1D3D4"/>
<path d="M178.14 167.184H110.734V173.132H178.14V167.184Z" fill="#D1D3D4"/>
<path d="M170.49 177.759H118.385V183.707H170.49V177.759Z" fill="#D1D3D4"/>
<path d="M267.139 65.7508C274.242 65.7508 280 59.9817 280 52.8652C280 45.7486 274.242 39.9795 267.139 39.9795C260.037 39.9795 254.279 45.7486 254.279 52.8652C254.279 59.9817 260.037 65.7508 267.139 65.7508Z" fill="#00CDA6"/>
<path d="M12.8606 193.619C19.9634 193.619 25.7213 187.849 25.7213 180.733C25.7213 173.616 19.9634 167.847 12.8606 167.847C5.7579 167.847 0 173.616 0 180.733C0 187.849 5.7579 193.619 12.8606 193.619Z" fill="#00CDA6"/>
<path d="M16.7168 158.859C20.5406 158.859 23.6405 155.753 23.6405 151.922C23.6405 148.091 20.5406 144.985 16.7168 144.985C12.8929 144.985 9.79297 148.091 9.79297 151.922C9.79297 155.753 12.8929 158.859 16.7168 158.859Z" fill="#00CDA6"/>
<path d="M252.795 26.101C255.799 26.101 258.234 23.6609 258.234 20.6508C258.234 17.6408 255.799 15.2007 252.795 15.2007C249.79 15.2007 247.355 17.6408 247.355 20.6508C247.355 23.6609 249.79 26.101 252.795 26.101Z" fill="#00CDA6"/>
</g>
<defs>
<linearGradient id="paint0_linear_95_110" x1="144.439" y1="211" x2="144.439" y2="0" gradientUnits="userSpaceOnUse">
<stop stop-color="#00CDA6"/>
<stop offset="1" stop-color="#2BF6B5"/>
</linearGradient>
<clipPath id="clip0_95_110">
<rect width="280" height="211" fill="white"/>
</clipPath>
</defs>
</svg>
