<svg width="241" height="95" viewBox="0 0 241 95" fill="none" xmlns="http://www.w3.org/2000/svg">
<path fill-rule="evenodd" clip-rule="evenodd" d="M15.2667 35.6524C0.557106 47.2616 -7.03514 64.3408 10.9245 77.1327C26.4236 88.1755 53.0534 91.7714 74.6952 93.6856C96.4217 95.6094 118.259 95.2316 139.745 93.6112C176.083 90.8748 243.203 82.4292 240.414 51.9178C238.815 34.4311 215.426 17.0706 191.876 8.62849C163.499 -1.54373 130.156 -0.411001 100.368 3.919C70.1258 8.3131 41.4422 17.0737 22.8069 32.8312C7.72774 45.5823 -3.91543 66.4537 15.5973 80.726C32.8363 93.3362 64.9729 94.302 88.377 92.9436C116.732 91.2967 144.985 88.6644 171.869 83.1062C196.533 78.0047 222.584 69.7315 234.512 54.5472C242.985 43.7561 241.815 31.8418 226.006 23.5075C209.807 14.9652 186.36 12.2853 166.433 10.5852C144.525 8.71673 123.143 8.72217 101.514 10.4299C96.3459 10.8394 91.1735 11.2442 86.0017 11.6276C83.6944 11.8 84.6103 14.0346 86.8957 13.8628C101.299 12.7913 115.55 11.2879 130.151 11.3201C140.405 11.3448 150.689 11.743 160.933 12.4449C182.202 13.9046 206.603 16.5895 224.118 25.3985C245.16 35.9859 235.158 53.4012 220.195 63.2879C199.767 76.7877 167.65 82.414 139.155 86.1414C112.123 89.6777 81.9637 92.9458 54.0239 90.1089C40.4862 88.7339 26.5605 85.3318 17.2805 78.5429C6.56075 70.7025 7.93511 59.9363 12.1763 51.0529C22.5815 29.28 52.8461 15.6111 85.8629 8.82765C117.628 2.30506 154.695 -0.447714 186.658 9.41293C202.585 14.3243 215.314 22.4503 224.774 31.8103C232.302 39.264 237.979 47.8074 236.665 56.5708C234.42 71.5476 209.525 79.6584 189.735 84.2118C166.614 89.5281 141.237 91.8294 116.433 92.5696C93.2897 93.2594 69.354 91.9592 46.8199 87.5885C34.2493 85.1476 21.6143 81.3824 12.6713 75.0132C2.65397 67.8757 2.18527 58.233 6.62568 49.9087C12.5616 38.7847 26.9568 29.8625 41.4984 23.0874C55.8924 16.3796 73.8235 10.9057 92.3211 10.474C94.6272 10.4206 94.7178 8.14421 92.3898 8.19829C62.0361 8.90534 33.3297 21.3949 15.2667 35.6524Z" fill="#9BC742"/>
</svg>
