<svg width="65" height="64" viewBox="0 0 65 64" fill="none" xmlns="http://www.w3.org/2000/svg">
<rect x="0.487793" y="0.390137" width="64.4773" height="62.7805" rx="10" fill="#0268D8"/>
<circle cx="32.6829" cy="32.5851" r="19.3171" fill="white"/>
<path d="M33.0515 25.2734C34.1441 25.2734 35.0298 24.3877 35.0298 23.2951C35.0298 22.2026 34.1441 21.3169 33.0515 21.3169C31.9589 21.3169 31.0732 22.2026 31.0732 23.2951C31.0732 24.3877 31.9589 25.2734 33.0515 25.2734Z" fill="#0268D8"/>
<path d="M33.0515 27.2512C32.5268 27.2512 32.0237 27.4596 31.6527 27.8306C31.2817 28.2016 31.0732 28.7048 31.0732 29.2295V39.1207C31.0732 39.6454 31.2817 40.1486 31.6527 40.5196C32.0237 40.8906 32.5268 41.099 33.0515 41.099C33.5762 41.099 34.0793 40.8906 34.4503 40.5196C34.8213 40.1486 35.0298 39.6454 35.0298 39.1207V29.2295C35.0298 28.7048 34.8213 28.2016 34.4503 27.8306C34.0793 27.4596 33.5762 27.2512 33.0515 27.2512Z" fill="#0268D8"/>
</svg>
