<svg width="65" height="63" viewBox="0 0 65 63" fill="none" xmlns="http://www.w3.org/2000/svg">
<rect x="0.487793" y="0.12207" width="64.4773" height="62.7805" rx="10" fill="#E94F2E"/>
<path d="M38.0918 17.7419L51.0362 39.416C52.8964 42.5289 51.9827 46.6245 48.9944 48.5625C47.9914 49.2154 46.8223 49.5633 45.6274 49.5646H19.7366C16.219 49.5646 13.3658 46.5934 13.3658 42.9251C13.3658 41.6842 13.7 40.4704 14.3278 39.416L27.2742 17.7419C29.1325 14.629 33.0616 13.6755 36.0499 15.6136C36.8767 16.1495 37.576 16.8778 38.0918 17.7419V17.7419ZM32.683 41.7968C33.1953 41.7968 33.6866 41.5922 34.0489 41.228C34.4112 40.8638 34.6147 40.3699 34.6147 39.8549C34.6147 39.3398 34.4112 38.8459 34.0489 38.4817C33.6866 38.1175 33.1953 37.9129 32.683 37.9129C32.1707 37.9129 31.6793 38.1175 31.317 38.4817C30.9548 38.8459 30.7513 39.3398 30.7513 39.8549C30.7513 40.3699 30.9548 40.8638 31.317 41.228C31.6793 41.5922 32.1707 41.7968 32.683 41.7968V41.7968ZM32.683 24.3193C32.1707 24.3193 31.6793 24.5239 31.317 24.8881C30.9548 25.2523 30.7513 25.7462 30.7513 26.2612V34.029C30.7513 34.5441 30.9548 35.038 31.317 35.4022C31.6793 35.7664 32.1707 35.971 32.683 35.971C33.1953 35.971 33.6866 35.7664 34.0489 35.4022C34.4112 35.038 34.6147 34.5441 34.6147 34.029V26.2612C34.6147 25.7462 34.4112 25.2523 34.0489 24.8881C33.6866 24.5239 33.1953 24.3193 32.683 24.3193Z" fill="white"/>
</svg>
