<svg width="31" height="31" viewBox="0 0 31 31" fill="none" xmlns="http://www.w3.org/2000/svg">
<path d="M12.3106 21.1933L11.125 25.3438L9.93938 21.1933C9.63294 20.1213 9.0584 19.1449 8.26996 18.3565C7.48153 17.5681 6.5052 16.9935 5.43313 16.6871L1.28125 15.5L5.43167 14.3144C6.50375 14.0079 7.48007 13.4334 8.2685 12.645C9.05694 11.8565 9.63148 10.8802 9.93792 9.80813L11.125 5.65625L12.3106 9.80667C12.6171 10.8787 13.1916 11.8551 13.98 12.6435C14.7685 13.4319 15.7448 14.0065 16.8169 14.3129L20.9688 15.5L16.8183 16.6856C15.7463 16.9921 14.7699 17.5666 13.9815 18.355C13.1931 19.1435 12.6185 20.1198 12.3121 21.1919L12.3106 21.1933ZM24.6277 10.7094L24.25 12.2188L23.8723 10.7094C23.6561 9.84398 23.2088 9.05361 22.5782 8.42275C21.9476 7.79189 21.1574 7.34426 20.2921 7.12771L18.7813 6.75L20.2921 6.37229C21.1574 6.15574 21.9476 5.70811 22.5782 5.07725C23.2088 4.44639 23.6561 3.65602 23.8723 2.79063L24.25 1.28125L24.6277 2.79063C24.844 3.6562 25.2916 4.44669 25.9224 5.07757C26.5533 5.70844 27.3438 6.15597 28.2094 6.37229L29.7188 6.75L28.2094 7.12771C27.3438 7.34403 26.5533 7.79156 25.9224 8.42243C25.2916 9.05331 24.844 9.8438 24.6277 10.7094ZM22.6371 27.9935L22.0625 29.7188L21.4879 27.9935C21.3268 27.5103 21.0554 27.0712 20.6953 26.711C20.3351 26.3508 19.896 26.0794 19.4127 25.9183L17.6875 25.3438L19.4127 24.7692C19.896 24.6081 20.3351 24.3367 20.6953 23.9765C21.0554 23.6163 21.3268 23.1772 21.4879 22.694L22.0625 20.9688L22.6371 22.694C22.7982 23.1772 23.0696 23.6163 23.4297 23.9765C23.7899 24.3367 24.229 24.6081 24.7123 24.7692L26.4375 25.3438L24.7123 25.9183C24.229 26.0794 23.7899 26.3508 23.4297 26.711C23.0696 27.0712 22.7982 27.5103 22.6371 27.9935V27.9935Z" stroke="#9BC742" stroke-width="2.5" stroke-linecap="round" stroke-linejoin="round"/>
</svg>
