<svg width="237" height="389" viewBox="0 0 237 389" fill="none" xmlns="http://www.w3.org/2000/svg">
<g clip-path="url(#clip0_5_172)">
<path d="M143.178 115.914C127.148 110.87 115.757 93.9129 117.149 77.1646C117.943 67.4807 122.441 58.5632 125.185 49.2416C129.307 35.1964 128.652 18.1556 117.887 8.24873C117.107 7.53811 116.23 6.84143 115.186 6.66029C114.002 6.46522 112.818 6.98077 111.746 7.52418C104.184 11.3281 97.6104 17.0548 92.8197 24.0216C100.786 27.5469 106.69 35.3497 107.916 43.9746C109.907 57.8665 100.605 70.7969 98.6967 84.7027C97.0812 96.4767 101.189 108.906 109.49 117.405C117.79 125.905 130.101 130.294 141.91 128.97" fill="#241520"/>
<path d="M136.994 115.649C137.746 115.259 137.802 114.214 145.169 115.245C152.536 116.262 153.608 113.81 155.642 113.42C157.675 113.03 160.14 114.075 160.07 115.217C160.001 116.36 156.115 122.129 155.99 122.115C155.865 122.101 148.901 123.243 148.901 123.243C148.901 123.243 143.47 122.435 142.983 122.24C142.481 122.045 138.526 118.046 138.526 118.046L136.994 115.649Z" fill="#241520"/>
<path d="M144.96 105.826L142.314 121.947L151.325 123.132L151.352 110.076" fill="#66393B"/>
<path d="M45.3862 235.953L29.6911 211.262L19.8173 213.91L32.9917 241.234L45.3862 235.953Z" fill="#66393B"/>
<path d="M185.096 347.171L187.84 376.515L197.895 378.675L198.633 348.133L185.096 347.171Z" fill="#66393B"/>
<path d="M198.104 357.858C199.816 357.956 201.516 358.012 203.228 358.053C205.053 343.005 206.821 321.255 204.746 303.865C201.209 274.201 165.362 201.55 165.362 201.55C165.362 201.55 110.548 210.579 113.89 221.211C160.558 269.031 176.782 328.375 182.13 356.925C187.45 357.106 192.784 357.538 198.09 357.844L198.104 357.858Z" fill="#1C343B"/>
<path d="M154.959 102.273C157.313 110.703 157.981 111.818 148.024 114.618C142.704 116.109 137.175 113.002 135.685 107.679C134.195 102.357 137.301 96.825 142.621 95.3341C147.94 93.8432 153.469 96.9504 154.959 102.273Z" fill="#66393B"/>
<path d="M92.9032 102.998L73.6569 53.6028L80.0212 51.7218L103.028 88.0468L92.9032 102.998Z" fill="#66393B"/>
<path d="M202.448 95.7939L221.319 60.9598L229.02 61.6425L211.347 110.564L202.448 95.7939Z" fill="#66393B"/>
<path d="M109.336 194.124L75.2863 261.591L42.1135 221.629C40.2613 223.134 38.3813 224.611 36.4873 226.06C32.8107 228.86 29.0645 231.591 25.2904 234.267C33.4931 256.644 50.539 292.259 76.86 295.742C115.548 300.87 165.349 201.55 165.349 201.55L109.322 194.124H109.336Z" fill="#223F47"/>
<path d="M22.0038 219.441L23.3964 223.496C23.3964 223.496 21.7392 225.391 22.9787 226.603C24.2181 227.815 25.4019 228.15 25.4019 228.15C25.4019 228.15 23.6889 229.153 25.1512 230.045C26.6135 230.937 39.955 221.643 39.955 221.643C39.955 221.643 39.384 220.681 38.2699 221.071C37.1697 221.448 38.5066 217.936 36.9051 218.076C35.3035 218.215 31.5016 213.84 31.5016 213.84L21.976 219.427L22.0038 219.441Z" fill="#F59864"/>
<path d="M188.076 377.073C187.993 375.234 187.826 373.394 187.561 371.569C186.391 371.792 185.124 371.137 184.623 370.064C184.121 368.991 184.442 367.598 185.361 366.845C184.261 366.553 183.3 365.773 182.77 364.769C182.45 364.156 182.283 363.432 182.45 362.763C182.673 361.815 183.522 361.119 184.442 360.784C185.361 360.464 186.35 360.45 187.324 360.45C191.126 360.464 194.928 360.631 198.716 360.952C199.789 361.035 200.944 361.188 201.71 361.927C201.919 362.136 202.1 362.373 202.17 362.665C202.476 363.738 201.376 364.658 200.429 365.229C201.404 365.48 202.267 366.316 202.323 367.319C202.379 368.322 201.418 369.326 200.443 369.131C201.265 369.73 202.184 370.691 201.738 371.611C201.362 372.405 200.276 372.447 199.454 372.781C198.34 373.241 197.63 374.37 197.351 375.54C197.087 376.71 197.198 377.937 197.31 379.121" fill="#F59864"/>
<path d="M34.4401 215.261L26.4324 200.115C26.4324 200.115 -1.74078 218.104 0.0835841 219.706C1.81046 221.225 17.8259 216.668 19.4135 216.223L21.4328 220.584L34.4401 215.261Z" fill="#302126"/>
<path d="M186.559 371.889L185.667 389C185.667 389 219.077 387.997 218.325 385.698C217.614 383.51 201.543 379.205 199.942 378.773L200.443 373.993L186.545 371.889H186.559Z" fill="#302126"/>
<path d="M80.0212 51.7218L85.4525 42.7624C85.4525 42.7624 84.1295 41.2297 81.5253 44.2812C78.921 47.3327 75.9547 53.0455 75.9547 53.0455L80.0352 51.7218H80.0212Z" fill="#66393B"/>
<path d="M73.6568 53.6028L64.6186 46.2876C64.6186 46.2876 64.2426 44.0304 66.624 45.2008C69.0193 46.3712 71.1779 48.0154 71.1779 48.0154C71.1779 48.0154 64.7161 39.1815 65.9973 38.4987C67.2785 37.816 72.0135 45.577 72.0135 45.577C72.0135 45.577 68.8801 34.6391 70.3006 34.1514C71.7211 33.6637 74.9938 44.7967 74.9938 44.7967C74.9938 44.7967 74.3949 35.2104 75.9129 35.2382C77.4309 35.2661 80.4808 54.5224 80.4251 55.024C80.3554 55.5257 73.6568 53.6167 73.6568 53.6167V53.6028Z" fill="#66393B"/>
<path d="M221.402 61.127L216.264 52.0004C216.264 52.0004 217.628 50.5095 220.149 53.6446C222.656 56.7797 225.441 62.59 225.441 62.59L221.402 61.1409V61.127Z" fill="#66393B"/>
<path d="M227.697 63.2031L236.958 56.1805C236.958 56.1805 237.404 53.9372 234.981 55.024C232.557 56.1109 230.343 57.6854 230.343 57.6854C230.343 57.6854 237.084 49.0604 235.83 48.3359C234.577 47.6113 229.591 55.2191 229.591 55.2191C229.591 55.2191 233.073 44.3787 231.666 43.8492C230.26 43.3198 226.639 54.3274 226.639 54.3274C226.639 54.3274 227.544 44.7689 226.012 44.7549C224.494 44.741 220.831 63.8858 220.887 64.3875C220.943 64.8891 227.697 63.1892 227.697 63.1892V63.2031Z" fill="#66393B"/>
<path d="M148.08 129.667C140.1 128.608 140.532 120.331 140.782 118.185L155.892 120.192C156.074 124.01 155.363 130.642 148.066 129.681L148.08 129.667Z" fill="#66393B"/>
<path d="M156.018 91.0565C154.681 90.5549 153.748 91.2376 153.233 91.8228C153.845 90.8614 154.639 89.0779 153.233 87.9911C151.227 86.4584 149.723 87.9214 148.651 90.318C147.578 92.7146 143.094 92.9236 137.022 94.9719C130.95 97.0201 131.8 100.629 131.8 100.629C133.638 104.711 135.546 108.446 137.607 111.414C139.821 114.688 143.707 114.883 144.375 114.925C144.459 114.925 143.442 108.237 143.024 105.464V105.171C143.024 105.171 144.835 105.366 145.852 104.029C146.868 102.691 143.93 99.6675 148.358 98.6085C152.773 97.5496 154.751 95.2505 154.751 95.2505C154.751 95.2505 158.162 91.8507 156.018 91.0565Z" fill="#241520"/>
<path d="M143.024 105.185C142.927 105.213 139.71 103.29 139.431 106.62C139.153 109.937 142.495 111.692 144.779 109.909" fill="#66393B"/>
<path d="M23.7028 235.214L43.339 220.514L48.5057 227.035L26.2652 240.802L23.7028 235.214Z" fill="#284B54"/>
<path d="M178.941 357.496L206.459 358.039L206.432 349.484L177.701 349.178L178.941 357.496Z" fill="#223F47"/>
<path d="M153.065 101.423L159.444 102.733L154.402 107.22" fill="#66393B"/>
<path d="M107.749 190.055L104.365 202.15C104.239 202.623 104.114 203.139 104.337 203.571C104.574 204.017 105.117 204.212 105.604 204.365C126.341 210.775 148.553 210.984 170.167 209.102C168.259 202.191 166.365 195.28 164.457 188.355L107.735 190.041L107.749 190.055Z" fill="#F5BA93"/>
<path d="M76.8043 65.4185C75.0914 62.4228 73.3645 59.4131 71.6515 56.4174C71.4148 56.0133 71.178 55.4978 71.4287 55.0937C71.554 54.8986 71.7769 54.7732 71.9858 54.6757C74.6039 53.352 77.2221 52.0283 79.8403 50.7046C80.2163 50.5095 80.6202 50.3145 81.0519 50.3284C82.1103 50.3702 82.6395 51.5963 82.9598 52.6135C83.8232 55.3584 84.9373 58.0337 86.2882 60.5696L76.7904 65.4185H76.8043Z" fill="#F5BA93"/>
<path d="M212.559 74.1968C212.559 74.1968 212.559 74.1828 212.559 74.1689C214.411 69.9749 216.389 65.8505 218.478 61.7679C221.89 62.7433 225.274 63.7883 228.644 64.9169C228.992 65.0284 229.368 65.1817 229.549 65.5021C229.703 65.8087 229.633 66.171 229.549 66.5054C228.393 71.215 226.806 75.8131 224.814 80.23L212.545 74.1968H212.559Z" fill="#F5BA93"/>
<path d="M171.253 199.544C170.529 200.742 169.568 201.871 168.357 202.512C167.911 202.777 167.424 202.944 166.908 203.041C165.585 203.278 164.248 202.902 162.939 202.568C159.388 201.676 155.739 201.16 152.091 201.021C149.375 200.937 146.659 201.049 143.958 200.937C141.172 200.812 138.387 200.45 135.616 200.087L118.068 197.788C115.394 197.44 112.609 197.05 110.367 195.545C109.002 194.625 107.958 193.371 107.234 191.936C105.827 189.191 105.493 185.805 106.008 182.712C106.245 181.193 106.663 179.702 107.164 178.239C107.456 177.362 107.791 176.498 108.125 175.62C108.571 174.505 109.03 173.377 109.49 172.262C109.852 171.384 110.2 170.492 110.52 169.601C110.576 169.475 110.618 169.35 110.66 169.224C110.66 169.224 110.664 169.215 110.673 169.196C111.119 167.97 111.509 166.716 111.857 165.462C111.899 165.309 111.941 165.156 111.996 165.002C112.233 164.097 112.47 163.191 112.693 162.285C113.069 160.753 113.403 159.206 113.737 157.673C113.751 157.645 113.751 157.604 113.765 157.576C113.96 156.698 114.155 155.834 114.35 154.956C114.824 152.797 115.311 150.623 115.784 148.463C115.993 147.557 116.188 146.652 116.383 145.746C116.745 144.116 117.107 142.472 117.483 140.841C117.637 140.145 117.79 139.434 117.943 138.737C118.486 136.313 119.029 133.875 120.032 131.59C122.33 126.364 127.121 122.296 132.663 120.861L136.396 120.958L155.113 121.418H155.127L162.104 121.599L163.914 131.381C165.836 134.112 166.504 137.497 167.02 140.8C167.284 142.514 167.521 144.241 167.716 145.969C167.897 147.502 168.05 149.048 168.162 150.581C168.245 151.487 168.315 152.406 168.371 153.312C168.468 154.901 168.538 156.475 168.58 158.063C168.621 158.997 168.635 159.917 168.635 160.85C168.663 162.467 168.649 164.069 168.607 165.685V165.811L168.524 168.36C168.51 169.266 168.482 170.172 168.482 171.064C168.482 171.788 168.482 172.499 168.524 173.209C168.524 173.683 168.552 174.143 168.593 174.603C168.607 175.076 168.649 175.55 168.705 176.01C168.886 177.598 169.192 179.173 169.708 180.692C169.819 181.026 169.93 181.347 170.056 181.667C170.418 182.587 170.836 183.492 171.239 184.398C171.852 185.778 172.451 187.157 172.827 188.606C173.774 192.271 173.189 196.297 171.253 199.544Z" fill="#FEC9A5"/>
<path d="M136.939 118.45C124.878 111.999 115.687 101.353 107.094 90.6942C104.991 88.0747 102.888 85.4412 101.148 82.5709C96.5798 75.0188 94.463 65.8226 88.0986 59.7057C87.1794 58.8279 86.0793 57.978 84.8119 57.9222C83.4889 57.8665 82.3052 58.6747 81.2189 59.441C78.6286 61.2942 75.7876 63.5793 75.6066 66.7562C75.5369 67.9823 75.899 69.1806 76.2472 70.3511C80.9682 86.0125 85.9818 101.771 94.4212 115.789C102.861 129.806 115.13 142.095 130.56 147.488L136.925 118.45H136.939Z" fill="#FEC9A5"/>
<path d="M154.946 120.875C165.084 118.492 173.746 112.11 182.032 105.798C191.823 98.3438 201.752 90.527 208.089 79.9932C210.317 76.3007 212.378 72.0231 216.361 70.3789C219.369 69.1388 223.074 69.8495 225.413 72.1067C226.137 72.8034 226.75 73.6533 227.015 74.6287C227.433 76.1196 227.029 77.722 226.597 79.2129C221.305 97.257 211.194 113.643 198.842 127.8C196.586 130.391 194.232 132.913 191.586 135.101C183.606 141.691 173.37 144.854 163.246 146.972L154.932 120.861L154.946 120.875Z" fill="#FEC9A5"/>
<path d="M171.239 184.398C162.09 184.983 152.898 185.415 143.79 185.025C131.284 184.482 119.015 182.127 107.164 178.239C107.456 177.362 107.791 176.498 108.125 175.62C120.491 179.661 133.304 182.015 146.381 182.322C154.249 182.503 162.159 182.155 170.056 181.667C170.418 182.587 170.835 183.492 171.239 184.398Z" fill="#F59864"/>
<path d="M168.607 165.811L168.524 168.36C166.435 168.347 164.36 168.277 162.299 168.179C161.352 168.151 160.405 168.11 159.458 168.054C156.979 167.942 154.542 167.817 152.174 167.747C150.949 167.706 149.723 167.664 148.498 167.608C147.147 167.566 145.782 167.51 144.431 167.441C140.337 167.274 136.242 167.037 132.162 166.744C130.351 166.633 128.555 166.493 126.758 166.354C123.625 166.103 120.491 165.838 117.372 165.532C115.77 165.393 114.155 165.225 112.539 165.058C112.358 165.044 112.177 165.016 111.996 165.002C112.233 164.097 112.47 163.191 112.693 162.285C124.001 163.47 135.323 164.306 146.687 164.766C153.386 165.044 161.045 165.825 168.607 165.811Z" fill="#F59864"/>
<path d="M168.371 153.312C167.855 153.34 167.354 153.34 166.839 153.354C165.919 153.368 165 153.382 164.081 153.382C162.897 153.396 161.714 153.396 160.544 153.382C159.611 153.382 158.692 153.368 157.772 153.34C156.366 153.312 154.973 153.27 153.581 153.215C152.648 153.173 151.714 153.131 150.795 153.089C149.124 153.006 147.453 152.894 145.782 152.769C144.849 152.699 143.916 152.615 142.983 152.532C141.882 152.448 140.768 152.337 139.668 152.225C138.749 152.128 137.816 152.03 136.897 151.919C129.822 151.111 122.789 149.954 115.784 148.463C115.993 147.557 116.188 146.652 116.383 145.746C128.109 148.254 139.975 149.801 151.882 150.386C151.882 150.386 151.891 150.386 151.909 150.386C152.202 150.4 152.508 150.414 152.801 150.428C157.912 150.651 163.037 150.707 168.162 150.581C168.245 151.487 168.315 152.406 168.371 153.312Z" fill="#F59864"/>
<path d="M113.654 175.815C115.45 175.815 115.45 173.028 113.654 173.028C111.857 173.028 111.857 175.815 113.654 175.815Z" fill="#F59864"/>
<path d="M119.461 176.749H119.92C121.717 176.749 121.717 173.962 119.92 173.962H119.461C117.664 173.962 117.664 176.749 119.461 176.749Z" fill="#F59864"/>
<path d="M125.644 178.128C125.881 178.044 126.104 177.961 126.341 177.877C127.051 177.626 127.524 176.93 127.315 176.163C127.12 175.481 126.313 174.937 125.602 175.188L124.906 175.439C124.196 175.69 123.722 176.386 123.931 177.153C124.126 177.835 124.934 178.379 125.644 178.128Z" fill="#F59864"/>
<path d="M130.31 178.198C130.393 178.281 130.463 178.351 130.546 178.434C131.814 179.702 133.791 177.738 132.51 176.47C132.426 176.386 132.357 176.317 132.273 176.233C131.006 174.965 129.028 176.93 130.31 178.198Z" fill="#F59864"/>
<path d="M136.869 179.758H137.106C138.902 179.758 138.902 176.971 137.106 176.971H136.869C135.072 176.971 135.072 179.758 136.869 179.758Z" fill="#F59864"/>
<path d="M143.595 177.445H143.359C141.562 177.445 141.562 180.232 143.359 180.232H143.595C145.392 180.232 145.392 177.445 143.595 177.445Z" fill="#F59864"/>
<path d="M149.403 180.232C149.403 180.232 149.333 180.218 149.305 180.204C149.096 180.079 148.901 179.967 148.692 179.842C148.692 179.814 148.665 179.786 148.651 179.772C149.514 181.347 151.923 179.939 151.06 178.365C150.74 177.78 150.085 177.362 149.403 177.445C148.651 177.529 148.01 178.03 148.01 178.839C148.01 179.521 148.651 180.316 149.403 180.232Z" fill="#F59864"/>
<path d="M155.21 180.455H155.67C157.466 180.455 157.466 177.668 155.67 177.668H155.21C153.414 177.668 153.414 180.455 155.21 180.455Z" fill="#F59864"/>
<path d="M160.321 179.786C160.474 179.87 160.627 179.939 160.781 180.023C162.368 180.831 163.789 178.434 162.187 177.612C162.034 177.529 161.881 177.459 161.728 177.376C160.14 176.567 158.719 178.964 160.321 179.786Z" fill="#F59864"/>
<path d="M166.574 179.758C168.37 179.758 168.37 176.971 166.574 176.971C164.777 176.971 164.777 179.758 166.574 179.758Z" fill="#F59864"/>
<path d="M168.593 174.603C168.078 175.049 167.563 175.522 167.061 176.01C166.978 176.08 166.908 176.149 166.825 176.233C166.142 176.916 165.223 176.679 164.694 176.01C164.666 175.996 164.652 175.968 164.638 175.954L162.591 173.195C161.964 172.359 161.338 171.523 160.725 170.687C159.736 171.565 158.733 172.401 157.717 173.195C156.463 174.185 155.168 175.118 153.831 176.024C153.511 176.233 153.177 176.456 152.842 176.665C152.174 177.083 151.338 176.762 150.935 176.163C150.893 176.108 150.865 176.052 150.837 176.01C150.099 174.923 149.458 173.962 148.818 173.182C147.258 171.3 145.615 170.52 142.203 171.649C141.465 171.9 140.699 172.499 139.919 173.112C138.832 173.948 137.718 174.84 136.562 174.826C134.794 174.812 134.056 173.864 133.415 172.75C132.774 171.649 132.245 170.395 130.936 169.684C127.9 168.068 126.187 170.228 124.321 171.774C123.249 172.638 122.135 173.307 120.686 172.931C119.725 172.68 119.071 171.83 118.458 170.91C117.706 169.768 117.038 168.5 115.965 168.138C113.96 167.455 112.303 168.193 110.659 169.224C110.659 169.224 110.664 169.215 110.673 169.196C111.119 167.97 111.509 166.716 111.857 165.462C112.08 165.323 112.317 165.198 112.539 165.058L114.419 163.93C114.921 163.623 115.701 163.693 116.105 164.139C116.55 164.626 116.954 165.1 117.372 165.532C119.767 168.193 121.536 169.628 125.505 167.26C125.839 167.065 126.271 166.702 126.758 166.354C127.636 165.685 128.694 164.975 129.613 165.072C130.727 165.198 131.507 165.88 132.162 166.744C133.262 168.138 134.07 169.977 135.588 170.66C136.535 172.164 137.593 172.081 138.763 170.423C140.1 169.601 141.478 168.848 142.899 168.179C143.219 168.04 143.79 167.733 144.431 167.441C145.253 167.065 146.2 166.716 146.826 166.814C147.411 166.911 147.968 167.204 148.497 167.608C150.085 168.89 151.38 171.342 152.397 173.195L152.564 173.488C152.703 173.418 152.856 173.321 152.996 173.195C155.28 171.649 157.41 169.935 159.458 168.054C159.611 167.929 159.764 167.789 159.917 167.65C160.641 166.995 161.56 167.204 162.104 167.929C162.159 168.012 162.229 168.096 162.299 168.179C163.524 169.851 164.763 171.509 166.017 173.168C166.825 172.429 167.646 171.718 168.482 171.064C168.482 171.788 168.482 172.499 168.524 173.209C168.524 173.683 168.551 174.143 168.593 174.603Z" fill="#F59864"/>
<path d="M168.705 176.01H164.694C161.073 176.024 157.452 176.038 153.831 176.024C152.829 176.024 151.84 176.024 150.837 176.01C147.202 176.01 143.581 175.982 139.947 175.94C133.443 175.857 127.009 175.118 120.603 174.129C120.255 174.087 119.893 174.031 119.544 173.962C117.692 173.683 115.84 173.363 113.988 173.056C112.484 172.791 110.994 172.527 109.49 172.262C109.852 171.384 110.2 170.492 110.52 169.601C113.166 170.06 115.812 170.506 118.458 170.91C120.408 171.217 122.358 171.509 124.321 171.774C127.343 172.178 130.365 172.527 133.415 172.75C135.574 172.931 137.732 173.056 139.919 173.112C140.768 173.14 141.618 173.154 142.481 173.154C144.598 173.168 146.701 173.168 148.818 173.182C150.015 173.182 151.213 173.182 152.397 173.195H162.591C163.719 173.195 164.847 173.195 165.975 173.195C166.003 173.195 166.017 173.195 166.045 173.195C166.866 173.195 167.702 173.195 168.524 173.195C168.524 173.669 168.551 174.129 168.593 174.589C168.607 175.063 168.649 175.536 168.705 175.996V176.01Z" fill="#F59864"/>
<path d="M168.635 160.85C150.294 160.781 131.981 159.708 113.737 157.673C113.751 157.645 113.751 157.604 113.765 157.576C113.96 156.698 114.155 155.834 114.35 154.956C121.787 155.778 129.223 156.433 136.674 156.921C137.593 156.991 138.526 157.046 139.445 157.102C140.754 157.186 142.05 157.269 143.359 157.325C144.375 157.395 145.392 157.436 146.408 157.478C147.913 157.562 149.403 157.632 150.893 157.673C151.826 157.715 152.745 157.757 153.678 157.785C155.071 157.827 156.463 157.868 157.856 157.896C158.789 157.938 159.708 157.952 160.641 157.966C161.811 157.994 162.995 158.022 164.165 158.022C165.098 158.05 166.031 158.05 166.964 158.063H168.579C168.621 158.997 168.635 159.917 168.635 160.85Z" fill="#F59864"/>
<path d="M136.925 150.971C136.827 153.215 136.73 155.458 136.632 157.701C136.549 159.499 139.334 159.485 139.418 157.701C139.515 155.458 139.612 153.215 139.71 150.971C139.794 149.174 137.008 149.188 136.925 150.971Z" fill="#F59864"/>
<path d="M142.955 151.891C143.01 153.033 143.066 154.19 143.136 155.332C143.192 156.294 143.15 157.297 143.749 158.105C144.793 159.54 147.216 158.147 146.158 156.698C145.754 156.141 145.921 155.137 145.879 154.469C145.838 153.605 145.796 152.741 145.74 151.891C145.643 150.107 142.857 150.093 142.955 151.891Z" fill="#F59864"/>
<path d="M150.809 151.668C150.726 153.688 150.754 155.695 150.879 157.715C150.99 159.499 153.789 159.513 153.664 157.715C153.525 155.695 153.511 153.688 153.595 151.668C153.664 149.87 150.879 149.884 150.809 151.668Z" fill="#F59864"/>
<path d="M157.786 152.824C157.689 154.608 157.717 156.391 157.87 158.175C158.023 159.945 160.808 159.958 160.655 158.175C160.502 156.391 160.474 154.608 160.572 152.824C160.669 151.027 157.884 151.041 157.786 152.824Z" fill="#F59864"/>
<path d="M164.053 153.521C163.942 155.151 163.984 156.782 164.206 158.398C164.304 159.15 164.777 159.777 165.599 159.791C166.281 159.791 167.089 159.15 166.992 158.398C166.783 156.768 166.727 155.151 166.839 153.521C166.964 151.738 164.179 151.738 164.053 153.521Z" fill="#F59864"/>
<path d="M116.216 161.881H119.001C120.798 161.881 120.798 159.095 119.001 159.095H116.216C114.42 159.095 114.42 161.881 116.216 161.881Z" fill="#F59864"/>
<path d="M125.728 162.076C126.73 162.174 127.733 162.271 128.736 162.369C129.488 162.439 130.128 161.672 130.128 160.976C130.128 160.167 129.488 159.652 128.736 159.582C127.733 159.485 126.73 159.387 125.728 159.29C124.976 159.22 124.335 159.986 124.335 160.683C124.335 161.491 124.976 162.007 125.728 162.076Z" fill="#F59864"/>
<path d="M136.409 163.512C137.231 163.456 138.011 163.512 138.819 163.721C140.559 164.166 141.297 161.477 139.557 161.031C138.526 160.767 137.468 160.655 136.409 160.711C134.627 160.822 134.613 163.609 136.409 163.498V163.512Z" fill="#F59864"/>
<path d="M147.314 163.748C148.748 163.679 150.169 163.721 151.575 163.957C153.33 164.25 154.082 161.561 152.313 161.268C150.656 160.99 148.999 160.864 147.314 160.962C145.531 161.059 145.517 163.846 147.314 163.748Z" fill="#F59864"/>
<path d="M161.003 164.222C162.117 164.125 163.246 164.125 164.36 164.306C165.098 164.431 165.864 164.111 166.073 163.33C166.254 162.662 165.85 161.742 165.098 161.617C163.733 161.394 162.382 161.296 161.003 161.421C160.251 161.491 159.611 162.007 159.611 162.815C159.611 163.512 160.251 164.278 161.003 164.208V164.222Z" fill="#F59864"/>
<path d="M141.005 89.9836C140.406 90.0393 128.318 87.6288 125.867 95.5849C123.416 103.541 129.822 101.98 134.028 109.073C138.234 116.165 141.005 89.9836 141.005 89.9836Z" fill="#1C343B"/>
<path d="M139.459 113.086L147.356 91.5302C147.356 91.5302 146.729 90.0393 145.35 89.8582C143.971 89.677 143.275 90.5131 143.275 90.5131C143.275 90.5131 142.008 88.5902 141.172 88.7156C140.337 88.841 132.83 107.526 132.83 107.526C132.83 107.526 132.273 110.842 134.71 111.051C137.148 111.26 135.532 113.74 139.473 113.086H139.459Z" fill="#284B54"/>
<path d="M138.122 116.067C139.278 116.889 140.573 117.391 141.952 117.558C148.08 118.283 154.542 118.074 160.056 115.231C159.931 117.781 159.792 120.345 159.667 122.895C159.611 124.024 159.541 125.18 159.026 126.183C158.218 127.744 156.491 128.58 154.834 129.068C150.085 130.475 144.835 129.973 140.448 127.702C139.028 126.964 137.649 126.002 136.897 124.567C135.783 122.435 137.231 119.857 136.869 117.461C136.702 116.36 136.298 114.786 138.136 116.081L138.122 116.067Z" fill="#30202D"/>
<path d="M139.055 120.164C140.406 119.356 141.117 121.933 140.518 123.397C136.465 133.08 126.354 139.002 116.16 141.482C105.966 143.963 95.3264 143.712 84.8955 144.91C79.1857 145.565 73.3366 146.749 68.6851 150.107C60.2318 156.21 57.9757 167.622 56.3463 177.919C64.173 181.361 71.9996 184.802 79.8402 188.258C80.063 181.054 80.4947 173.321 84.9512 167.65C90.0065 161.199 98.8916 159.234 107.08 158.83C115.269 158.426 123.722 159.108 131.41 156.266C143.609 151.752 151.492 137.804 149.068 125.027" fill="#30202D"/>
<path d="M126.104 95.3899C128.262 93.7457 130.198 91.8228 131.869 89.6631C132.301 89.1058 132.719 88.3116 132.315 87.7403C129.989 89.4123 128.081 91.6696 126.814 94.2334C127.719 91.9482 128.026 89.4402 127.705 87.0018C127.608 86.2772 127.051 85.3298 126.396 85.6642C126.118 85.8035 125.992 86.11 125.895 86.4026C125.059 88.9664 125.018 91.781 125.797 94.3588C125.575 91.1262 123.848 88.019 121.23 86.124C120.659 87.2665 121.397 88.6181 122.121 89.6771C123.124 91.168 124.126 92.6589 125.115 94.1498C124.001 91.1401 121.132 88.841 117.943 88.423C117.79 88.4091 117.637 88.3952 117.511 88.4648C117.275 88.5902 117.247 88.9246 117.316 89.1894C117.567 90.3041 118.625 91.0147 119.6 91.6138C121.341 92.6728 123.082 93.7317 124.809 94.7768C123.43 93.8711 122.023 92.9515 120.422 92.5892C118.82 92.213 116.968 92.4917 115.84 93.69C115.617 93.9408 115.408 94.303 115.589 94.5817C115.715 94.7907 115.979 94.8604 116.23 94.9022C118.667 95.362 121.16 95.5153 123.639 95.3481C121.049 96.2119 118.486 97.5217 116.829 99.6954C116.676 99.8904 116.536 100.113 116.55 100.364C116.592 100.908 117.316 101.061 117.859 100.977C120.533 100.573 122.399 98.2045 123.987 96.0029C122.706 98.1627 121.383 100.531 121.689 103.026C121.745 103.499 121.926 104.029 122.372 104.196C123.124 104.461 123.681 103.471 123.876 102.691C124.391 100.587 124.92 98.4971 125.435 96.3931C124.878 99.0683 125.408 101.967 126.87 104.266C127.664 104.126 127.733 103.012 127.58 102.217C127.218 100.295 126.758 98.3856 126.243 96.5046C126.981 98.1487 128.75 99.2634 130.56 99.2356C130.853 99.2356 131.187 99.1659 131.354 98.929C131.605 98.5249 131.215 98.0373 130.853 97.7307C129.307 96.4628 127.594 95.4038 125.77 94.5817" fill="#284B54"/>
<path d="M57.9479 173.613C57.2794 177.515 56.8477 181.444 56.6527 185.387C56.5692 187.171 59.3266 187.547 59.4102 185.75C59.6051 181.792 60.0369 177.877 60.7053 173.976C61.0117 172.206 58.2404 171.844 57.9479 173.613Z" fill="#30202D"/>
<path d="M61.7359 175.885L61.137 190.919C61.0674 192.703 63.8248 193.079 63.8945 191.281C64.0894 186.265 64.2983 181.263 64.4933 176.247C64.5629 174.463 61.8055 174.087 61.7359 175.885Z" fill="#30202D"/>
<path d="M66.2341 178.936C66.2062 183.729 66.1644 188.522 66.1366 193.33C66.1366 195.099 68.8801 195.489 68.894 193.692C68.9219 188.899 68.9637 184.105 68.9915 179.298C68.9915 177.529 66.248 177.139 66.2341 178.936Z" fill="#30202D"/>
<path d="M71.0388 181.319C70.7045 185.917 70.7881 190.501 71.3034 195.085C71.4983 196.869 74.2558 196.493 74.0608 194.709C73.5734 190.376 73.4898 186.042 73.7962 181.695C73.9215 179.911 71.1641 179.535 71.0388 181.333V181.319Z" fill="#30202D"/>
<path d="M75.8712 184.412C75.7876 188.104 75.9687 191.769 76.4282 195.434C76.6511 197.217 79.4085 196.841 79.1857 195.057C78.7539 191.644 78.559 188.23 78.6286 184.788C78.6704 183.019 75.899 182.629 75.8712 184.426V184.412Z" fill="#30202D"/>
<path d="M85.1323 21.3324C89.0456 22.5586 92.9589 23.7708 96.8862 24.997C98.5852 25.5265 99.6854 22.9627 97.9724 22.4332C94.0591 21.207 90.1458 19.9948 86.2185 18.7686C84.5195 18.2392 83.4193 20.803 85.1323 21.3324Z" fill="#241520"/>
<path d="M87.1238 16.7622C91.5245 17.6539 95.3821 19.6883 98.6827 22.7258C100.006 23.938 101.705 21.7365 100.396 20.5243C96.733 17.1523 92.3601 14.9787 87.4859 13.9894C85.7311 13.6271 85.369 16.3999 87.1238 16.7483V16.7622Z" fill="#241520"/>
<path d="M90.8281 12.2059C94.4908 14.1009 97.7774 16.5671 100.632 19.5489C101.858 20.8308 104.086 19.1588 102.847 17.849C99.6575 14.491 96.0366 11.76 91.9283 9.62815C90.3268 8.80606 89.2544 11.3699 90.842 12.1919L90.8281 12.2059Z" fill="#241520"/>
<path d="M95.0339 7.25944C98.7662 10.3388 102.359 13.5714 105.799 16.9573C107.08 18.2113 108.779 15.9958 107.512 14.7558C104.058 11.3699 100.465 8.13726 96.7469 5.05792C95.3542 3.91536 93.6552 6.11688 95.0339 7.25944Z" fill="#241520"/>
<path d="M100.994 4.57024C104.267 6.74389 106.997 9.44702 109.197 12.6936C110.2 14.1845 112.414 12.4846 111.411 10.9937C109.086 7.56598 106.161 4.65384 102.707 2.35479C101.217 1.3655 99.5044 3.56701 100.994 4.5563V4.57024Z" fill="#241520"/>
<path d="M107.61 2.56379C110.506 5.33659 113.027 8.42986 115.227 11.7879C116.216 13.2927 118.416 11.5928 117.442 10.088C115.116 6.53488 112.386 3.30227 109.323 0.362272C108.027 -0.877824 106.328 1.33763 107.61 2.56379Z" fill="#241520"/>
</g>
<defs>
<clipPath id="clip0_5_172">
<rect width="237" height="389" fill="white"/>
</clipPath>
</defs>
</svg>
