<svg width="29" height="29" viewBox="0 0 29 29" fill="none" xmlns="http://www.w3.org/2000/svg">
<rect x="0.25" y="0.25" width="28.5" height="28.5" rx="14.25" fill="#F9F9F9" stroke="#D3D3D3" stroke-width="0.5"/>
<path d="M14.5001 23.4286C15.0325 23.4292 15.552 23.2691 15.9862 22.9704C16.4204 22.6717 16.7478 22.2493 16.9229 21.7619H12.0772C12.2523 22.2493 12.5797 22.6717 13.0139 22.9704C13.4481 23.2691 13.9676 23.4292 14.5001 23.4286ZM20.5186 17.2502V13.4286C20.5186 10.7477 18.6399 8.4894 16.095 7.81023C15.843 7.19524 15.2274 6.7619 14.5001 6.7619C13.7727 6.7619 13.1571 7.19524 12.9052 7.81023C10.3602 8.49023 8.48154 10.7477 8.48154 13.4286V17.2502L7.01388 18.6727C6.93388 18.75 6.87044 18.8418 6.82721 18.9429C6.78397 19.044 6.7618 19.1524 6.76196 19.2619V20.0952C6.76196 20.3162 6.85255 20.5282 7.01379 20.6845C7.17503 20.8408 7.39372 20.9286 7.62175 20.9286H21.3784C21.6064 20.9286 21.8251 20.8408 21.9863 20.6845C22.1476 20.5282 22.2382 20.3162 22.2382 20.0952V19.2619C22.2383 19.1524 22.2161 19.044 22.1729 18.9429C22.1297 18.8418 22.0662 18.75 21.9862 18.6727L20.5186 17.2502Z" fill="#0B0146"/>
<circle cx="18.6666" cy="10.3333" r="2.38095" fill="#F0F0F0"/>
<circle cx="18.6668" cy="10.3333" r="1.19048" fill="#9BC742"/>
</svg>
