<svg width="21" height="25" viewBox="0 0 21 25" fill="none" xmlns="http://www.w3.org/2000/svg">
<path d="M10.0806 12.5C10.7737 12.5 11.3672 12.255 11.8611 11.765C12.3543 11.2758 12.6008 10.6875 12.6008 10C12.6008 9.3125 12.3543 8.72375 11.8611 8.23375C11.3672 7.74458 10.7737 7.5 10.0806 7.5C9.3876 7.5 8.79452 7.74458 8.30141 8.23375C7.80746 8.72375 7.56048 9.3125 7.56048 10C7.56048 10.6875 7.80746 11.2758 8.30141 11.765C8.79452 12.255 9.3876 12.5 10.0806 12.5ZM10.0806 25C6.69943 22.1458 4.17423 19.4946 2.50504 17.0462C0.835013 14.5988 0 12.3333 0 10.25C0 7.125 1.01353 4.63542 3.04057 2.78125C5.06678 0.927083 7.41348 0 10.0806 0C12.7478 0 15.0945 0.927083 17.1207 2.78125C19.1478 4.63542 20.1613 7.125 20.1613 10.25C20.1613 12.3333 19.3267 14.5988 17.6575 17.0462C15.9875 19.4946 13.4619 22.1458 10.0806 25Z" fill="#FF2929"/>
</svg>
