<svg width="224" height="269" viewBox="0 0 224 269" fill="none" xmlns="http://www.w3.org/2000/svg">
<g clip-path="url(#clip0_5_125)">
<path d="M28.6859 114.02C34.922 112.976 42.1321 92.14 50.9933 82.8916C41.9658 80.3272 32.5226 79.1756 23.1388 79.5199C21.7609 79.5674 20.3474 79.6624 19.1121 80.256C17.1403 81.1939 15.9525 83.224 14.8834 85.1355C11.0943 91.9026 7.3051 98.6816 3.51594 105.449C2.93391 106.482 2.33999 107.61 2.49441 108.797C2.827 111.302 5.99849 112.085 8.51668 112.287L29.2323 113.949" fill="#ED8D58"/>
<path d="M30.0876 113.427C32.4038 111.314 30.8715 107.087 28.0445 105.71C25.2175 104.333 21.8797 104.915 18.8032 105.532C19.801 102.92 22.2954 101.234 24.3266 99.3227C30.3489 93.6478 32.8552 85.3135 36.2286 77.7509C36.5612 77.0149 36.9413 76.2313 37.6659 75.8751C38.3667 75.5308 39.1982 75.6971 39.9584 75.8751C43.0348 76.5875 46.0757 77.4779 49.0571 78.5345C51.896 79.5436 55.1507 81.3245 55.2576 84.34C55.317 86.109 54.2242 87.6761 53.1789 89.1008C49.8648 93.6003 46.5508 98.0999 43.2368 102.599C39.4951 107.681 34.9814 113.225 28.6978 113.807" fill="#F59864"/>
<path d="M7.31704 111.088C5.72535 111.195 4.13367 110.126 3.64666 108.607C3.53975 108.298 3.50412 107.906 3.72981 107.669C3.93174 107.455 4.25245 107.431 4.54941 107.431C11.7476 107.408 18.8983 109.2 26.0847 108.737C26.4648 108.714 26.9043 108.702 27.1775 108.963C27.6526 109.414 27.2725 110.233 27.4863 110.851C27.6288 111.266 28.0089 111.527 28.294 111.86C28.5791 112.192 28.7573 112.715 28.4603 113.035C28.2228 113.296 27.807 113.261 27.4507 113.213C22.9963 112.548 18.5063 112.168 14.0045 112.062C11.415 112.002 8.75431 112.026 6.33114 111.136" fill="#F59864"/>
<path d="M52.9889 89.4688C62.4321 90.2998 72.0297 93.9565 81.5561 91.8195C86.3193 90.751 90.1322 87.9254 93.4818 84.4706C96.8315 81.0158 99.0646 77.1217 101.143 72.8715C102.996 69.0843 105.574 64.5016 110.444 65.024C111.964 65.1902 111.953 62.8157 110.444 62.6495C106.477 62.2221 103.436 64.6203 101.298 67.7427C98.827 71.3518 97.4967 75.5665 94.9072 79.1281C92.0446 83.0816 88.0654 87.1062 83.3972 88.8158C78.7291 90.5254 73.9302 90.2642 69.2265 89.635C63.7981 88.9108 58.4529 87.593 52.9889 87.1062C51.4685 86.9756 51.4804 89.3501 52.9889 89.4807V89.4688Z" fill="#ED8D58"/>
<path d="M89.455 232.588L112.154 242.964L111.073 251.607L86.4498 243.677L89.455 232.588Z" fill="#FEA574"/>
<path d="M117.31 173.702L64.3208 210.316L101.939 233.668C100.894 235.414 99.8605 237.159 98.8627 238.94C96.9265 242.371 95.0498 245.849 93.2324 249.352C73.372 245.042 41.3126 234.796 35.2903 212.975C26.441 180.908 104.493 127.27 104.493 127.27L117.31 173.714V173.702Z" fill="#ED8D58"/>
<path d="M121.764 72.9546C123.047 72.4203 147.468 52.5344 147.468 52.5344L156.009 70.1053L128.19 101.709L121.764 72.9546Z" fill="#30202D"/>
<path d="M91.5813 97.9455C91.5813 97.9455 72.006 75.1628 63.4417 66.0687C62.7647 65.3564 62.1708 64.7272 61.6481 64.2048C61.078 63.5518 60.4009 62.7326 59.6526 61.7235C61.1136 58.9929 70.0698 48.7472 70.0698 48.7472C70.0698 48.7472 70.2599 48.9134 70.6162 49.234C74.4766 52.5938 97.5798 72.7409 98.245 72.9546C101.63 79.3181 97.8174 88.2103 91.5813 97.9455Z" fill="#30202D"/>
<path d="M108.211 239.426L121.942 244.413C121.942 244.413 110.04 270.306 108.472 268.952C106.987 267.67 108.959 253.626 109.161 252.225L105.241 251.037L108.211 239.438V239.426Z" fill="#302126"/>
<path d="M183.78 183.128L199.828 164.014L207.869 167.362L193.675 188.97L183.78 183.128Z" fill="#FEA574"/>
<path d="M158.491 65.4988L180.3 25.9289L175.133 23.6256L151.602 51.739L158.491 65.4988Z" fill="#FEA574"/>
<path d="M66.6845 47.1444L54.6281 15.6001L48.0356 15.3151L57.5026 58.613L66.6845 47.1444Z" fill="#FEA574"/>
<path d="M134.391 140.626L155.617 201.424L188.14 171.387C189.541 172.859 190.955 174.319 192.404 175.756C195.195 178.534 198.058 181.265 200.956 183.948C191.513 201.934 173.114 230.107 150.462 230.107C117.179 230.107 86.1886 140.638 86.1886 140.638H134.391V140.626Z" fill="#F59864"/>
<path d="M98.8746 71.898C106.928 71.9811 114.97 72.0523 123.023 72.1354C122.679 78.9857 124.52 85.9309 128.226 91.7008C130.851 95.7848 134.331 99.2396 137.788 102.659C145.235 110.02 152.671 117.392 160.119 124.753C169.99 134.524 180.241 144.544 193.2 149.566C184.113 172.372 170.394 193.315 153.123 210.767C141.03 222.972 125.636 234.013 108.46 233.336C99.1359 209.96 91.6526 185.847 86.0936 161.296C79.1329 181.633 67.9555 200.521 53.4878 216.406C52.2168 217.807 50.8389 219.232 49.0572 219.861C47.0142 220.585 44.7335 220.134 42.6786 219.457C24.2911 213.343 16.6177 190.94 0.0238037 180.956C9.24132 168.621 20.5138 157.817 33.2473 149.162C44.0327 141.825 55.8991 135.96 65.663 127.305C76.1159 118.045 83.6942 105.959 89.7521 93.3748L98.8865 71.9098L98.8746 71.898Z" fill="#30202D"/>
<path d="M105.609 63.9436C96.0831 63.8011 86.6043 68.4075 80.8196 75.982C84.9651 75.6377 89.1819 76.2669 93.0423 77.7984C94.3133 78.3089 95.608 78.95 96.4038 80.0779C97.1997 81.1939 97.3779 82.6304 97.4254 84.0076C97.6629 89.9674 89.7639 135.046 84.9532 157.568C87.7802 148.236 90.6191 138.905 93.4462 129.561C99.8129 108.571 109.553 71.4231 106.441 65.297" fill="#402B3C"/>
<path d="M113.627 63.9555C124.033 65.9263 132.407 75.6733 132.799 86.2396C131.647 82.6067 126.61 81.5263 123.189 83.2122C119.768 84.898 118.058 88.6259 115.872 91.7601C110.147 99.9519 88.1247 151.228 84.49 158.066C98.4944 128.6 105.289 96.3072 111.976 64.371" fill="#402B3C"/>
<path d="M195.362 166.864L203.831 154.968C203.831 154.968 225.639 173.322 223.917 174.474C222.278 175.566 209.259 169.927 207.964 169.357L205.767 172.823L195.362 166.875V166.864Z" fill="#302126"/>
<path d="M175.133 23.6256L171.546 15.4576C171.546 15.4576 172.84 14.306 174.705 17.179C176.57 20.0521 178.435 25.2046 178.435 25.2046L175.133 23.6256Z" fill="#FEA574"/>
<path d="M180.3 25.9289L188.769 20.7645C188.769 20.7645 189.339 18.9005 187.189 19.6129C185.039 20.3252 183.032 21.4768 183.032 21.4768C183.032 21.4768 189.482 14.7334 188.484 14.0211C187.474 13.3087 182.604 19.3279 182.604 19.3279C182.604 19.3279 186.477 10.4357 185.324 9.86579C184.172 9.29592 180.157 18.3307 180.157 18.3307C180.157 18.3307 181.737 10.3051 180.442 10.1626C179.148 10.0201 174.42 25.9289 174.42 26.3681C174.42 26.8074 180.3 25.9407 180.3 25.9407V25.9289Z" fill="#FEA574"/>
<path d="M54.533 15.7425L59.902 8.60733C59.902 8.60733 58.9042 7.19454 56.4335 9.55711C53.9628 11.9197 50.9576 16.5142 50.9576 16.5142L54.533 15.7425Z" fill="#FEA574"/>
<path d="M48.9859 16.7873L41.9302 9.8183C41.9302 9.8183 41.7996 7.87126 43.7238 9.07035C45.6481 10.2576 47.3467 11.8366 47.3467 11.8366C47.3467 11.8366 42.6192 3.7991 43.7595 3.32421C44.8998 2.8612 48.2613 9.84204 48.2613 9.84204C48.2613 9.84204 46.539 0.296803 47.7862 0.0118705C49.0334 -0.284934 50.8627 9.42651 50.8627 9.42651C50.8627 9.42651 51.1715 1.24658 52.4662 1.40092C53.7609 1.55525 54.6993 18.1407 54.6043 18.5562C54.5093 18.9718 48.974 16.7873 48.974 16.7873H48.9859Z" fill="#FEA574"/>
<path d="M112.487 60.6431C112.57 60.6431 114.768 58.328 115.765 60.9874C116.763 63.6468 114.423 65.855 112.131 64.9171" fill="#FEA574"/>
<path d="M113.354 60.6431L113.782 74.5573H106.037L107.463 63.5162" fill="#FEA574"/>
<path d="M104.41 71.6368C104.814 71.1975 115.896 72.0286 115.896 72.0286L115.504 75.3884L85.8085 155.917L103.828 81.1227C103.828 81.1227 99.6704 76.7656 104.422 71.6249L104.41 71.6368Z" fill="#FEC9A5"/>
<path d="M117.357 65.5701C125.993 77.6441 124.056 94.5382 114.601 105.603C108.852 112.323 100.347 116.205 91.6763 117.487C83.0052 118.769 73.8114 117.202 65.2235 114.947C55.6615 112.441 46.3252 109.022 36.5969 107.158C35.1002 106.873 34.4588 109.165 35.9673 109.45C54.0579 112.928 71.6615 122.189 90.5122 120.016C99.5278 118.983 108.722 115.303 115.041 108.654C120.267 103.157 123.759 95.9985 124.876 88.5071C126.123 80.066 124.389 71.3756 119.388 64.3947C118.509 63.16 116.442 64.3472 117.333 65.5938L117.357 65.5701Z" fill="#ED8D58"/>
<path d="M102.01 61.0112C102.01 68.4669 101.725 69.5473 110.551 69.5473C115.267 69.5473 122.477 64.466 119.091 61.0112C119.091 56.2979 115.267 52.4751 110.551 52.4751C105.835 52.4751 102.01 56.2979 102.01 61.0112Z" fill="#FEA574"/>
<path d="M100.93 63.5162C99.1834 63.2431 97.7818 61.5454 97.8293 59.7883C97.8412 59.2541 98.0193 58.6486 98.4945 58.3993C98.8627 58.2093 99.3022 58.2568 99.7179 58.3281C100.668 58.4705 101.618 58.6249 102.569 58.7673C102.866 58.8148 103.175 58.8742 103.376 59.0879C103.578 59.3134 103.602 59.634 103.626 59.9427C103.662 60.6194 103.673 61.3436 103.293 61.9016C102.996 62.3409 102.509 62.5902 102.046 62.8395C101.333 63.2075 100.526 63.5874 99.7536 63.3737" fill="#30202D"/>
<path d="M108.971 64.0267C108.199 64.0979 107.427 63.7062 106.916 63.1125C106.405 62.5189 106.144 61.7591 106.025 60.9874C105.942 60.465 105.954 59.8477 106.358 59.4915C106.631 59.2541 107.023 59.2066 107.391 59.1828C108.983 59.0879 110.598 59.2541 112.143 59.6577C112.333 59.7052 112.535 59.7646 112.689 59.8952C112.82 60.002 112.915 60.1564 112.986 60.3107C113.473 61.3792 112.974 62.7208 112.036 63.4331C111.097 64.1454 109.838 64.2998 108.674 64.1217" fill="#30202D"/>
<path d="M103.388 58.1144C103.65 59.5153 103.222 61.023 102.272 62.0797C101.654 62.7683 100.846 63.255 100.134 63.8605C100.003 63.9673 99.8724 64.0979 99.8487 64.2641C99.8011 64.5847 100.169 64.7865 100.466 64.9052C102.082 65.4989 103.816 66.1043 105.491 65.6888" fill="#FEA574"/>
<path d="M116.502 58.9691C116.502 60.5244 115.338 61.8303 114.97 63.35C114.958 63.4212 114.934 63.4925 114.97 63.5637C115.005 63.6468 115.088 63.6824 115.171 63.718C115.409 63.813 115.647 63.908 115.872 64.003C116.241 63.1482 116.644 62.2577 117.369 61.676C117.654 61.4504 117.999 61.2842 118.367 61.2605C118.735 61.2486 119.115 61.4148 119.293 61.7354C119.448 62.0203 119.424 62.3765 119.388 62.697C119.293 63.5993 119.163 64.5253 118.664 65.2733C118.165 66.0212 117.191 66.5436 116.347 66.2349C116.098 66.8167 115.694 67.3272 115.183 67.6952C114.815 67.9801 114.376 68.1938 114.067 68.5381C113.758 68.8824 113.592 69.4285 113.853 69.8203C114.459 69.9153 115.053 69.6066 115.599 69.2979C117.048 68.4906 118.569 67.624 119.412 66.1874C119.756 65.5938 119.97 64.929 120.125 64.2641C120.683 61.9372 120.659 59.4797 120.065 57.1764" fill="#30202D"/>
<path d="M102.509 53.8404C102.937 50.7061 104.707 47.8687 107.011 45.7079C109.316 43.5472 112.143 42.0038 115.017 40.7097C116.264 40.1517 117.654 39.6175 118.973 39.9737C120.291 40.3298 121.301 41.9919 120.517 43.1198C120.576 42.3481 121.74 42.1225 122.334 42.6212C122.928 43.1198 123.071 43.9627 123.177 44.7225C123.902 49.9107 124.579 55.5025 122.144 60.1564" fill="#ED8D58"/>
<path d="M123.367 58.708C122.928 57.0696 121.657 55.7874 120.255 54.8495C115.385 51.5728 109.066 51.7627 103.198 52.0595C102.723 52.0833 102.224 52.1189 101.856 52.4038C101.535 52.6413 101.369 53.0212 101.238 53.4011C100.656 55.1226 100.906 57.0815 101.832 58.6367C102.034 58.6367 102.2 58.6842 102.355 58.7436C102.45 58.2924 102.794 57.8769 103.222 57.6632C103.887 57.3308 104.659 57.3783 105.408 57.4376C108.543 57.6988 111.667 58.0906 114.768 58.6249C116.288 58.886 117.88 59.2066 119.068 60.2039C120.255 61.1892 120.861 63.0651 119.958 64.3235L120.956 64.3829C122.869 63.2788 123.961 60.8568 123.391 58.7198L123.367 58.708Z" fill="#F59864"/>
<path d="M114.649 40.0568C112.44 39.5819 110.42 38.2759 109.078 36.4476C110.8 35.9846 112.772 36.7325 113.746 38.2166C112.938 36.4951 112.119 34.6668 112.309 32.7672C112.38 32.043 112.63 31.2951 113.176 30.8202C113.722 30.3453 114.649 30.2503 115.172 30.7608C115.457 31.0339 115.587 31.4375 115.694 31.8175C116.122 33.349 116.395 34.9161 116.514 36.4951C117.143 33.5389 119.662 28.6951 120.897 28.9919C122.132 29.2887 120.814 34.3344 120.137 36.9225C121.253 36.2339 121.669 34.833 122.489 33.812C123.308 32.791 125.197 32.3161 125.755 33.5033C125.969 33.9782 125.874 34.5243 125.731 35.0229C125.387 36.1983 124.769 37.2905 123.961 38.2166C124.995 37.6586 126.04 37.1125 127.074 36.5545C127.371 36.4001 127.679 36.2339 128.012 36.2577C129.188 36.317 129.081 38.2522 128.131 38.9526C127.18 39.6531 125.874 39.8193 125.102 40.6979C126.242 40.8997 127.382 41.1015 128.523 41.3033C129.045 41.3983 129.639 41.5408 129.877 42.0038C130.233 42.6805 129.509 43.5234 128.748 43.5828C127.988 43.6422 123.071 41.6001 123.071 41.6001C123.071 41.6001 128.903 45.9572 126.931 46.4321C124.959 46.907 122.013 40.2348 122.667 44.9481C123.32 49.6614 120.208 41.6476 120.208 41.6476C120.208 41.6476 121.99 46.6933 121.028 46.8476C120.065 47.002 119.103 41.3627 119.103 41.3627C119.103 41.3627 118.212 46.6339 117.179 46.1116C116.146 45.5892 117.773 40.8403 117.773 40.8403C117.773 40.8403 112.95 45.6604 111.608 44.4732C110.266 43.286 115.837 40.9828 115.837 40.9828C115.837 40.9828 110.349 43.1317 109.446 41.4339C108.543 39.7362 114.637 40.0805 114.637 40.0805L114.649 40.0568Z" fill="#F59864"/>
<path d="M80.8077 156.974C84.5018 157.211 88.2079 157.437 91.902 157.675C92.5434 157.71 93.0898 157.105 93.0898 156.487C93.0898 155.811 92.5434 155.336 91.902 155.3C88.2079 155.063 84.5018 154.837 80.8077 154.6C80.1663 154.564 79.6199 155.169 79.6199 155.787C79.6199 156.464 80.1663 156.938 80.8077 156.974Z" fill="#F59864"/>
<path d="M84.2168 144.318C87.9109 144.556 91.6169 144.781 95.311 145.019C95.9525 145.054 96.4989 144.449 96.4989 143.832C96.4989 143.155 95.9525 142.68 95.311 142.644C91.6169 142.407 87.9109 142.181 84.2168 141.944C83.5753 141.908 83.0289 142.514 83.0289 143.131C83.0289 143.808 83.5753 144.283 84.2168 144.318Z" fill="#F59864"/>
<path d="M86.9963 134.025C90.6904 134.263 94.3965 134.488 98.0906 134.726C98.732 134.761 99.2784 134.156 99.2784 133.538C99.2784 132.862 98.732 132.387 98.0906 132.351C94.3965 132.114 90.6904 131.888 86.9963 131.651C86.3549 131.615 85.8085 132.221 85.8085 132.838C85.8085 133.515 86.3549 133.99 86.9963 134.025Z" fill="#F59864"/>
<path d="M167.958 29.4905C167.958 29.4905 171.415 22.1298 175.133 23.6375C178.851 25.1453 179.647 26.5225 179.647 26.5225C179.647 26.5225 183.602 27.7097 179.255 33.4439" fill="#FEC9A5"/>
<path d="M48.19 23.1508C48.19 23.1508 45.2205 17.0128 48.19 16.0275C51.1596 15.0421 55.317 14.6384 55.317 14.6384C55.317 14.6384 59.4744 13.0594 58.6785 21.7617" fill="#FEC9A5"/>
<path d="M70.9607 50.4568L63.4417 66.0687V66.0925C63.4417 66.0925 62.7409 65.4751 61.6481 64.2048C61.078 63.5518 60.4009 62.7326 59.6526 61.7235C55.0557 55.5737 47.7506 42.8348 46.4083 22.759L62.052 18.2001L70.6162 49.234L70.9607 50.4568Z" fill="#30202D"/>
<path d="M147.48 52.5344L166.973 26.9142L181.82 34.6312C181.82 34.6312 168.434 61.0587 156.021 70.1053C143.608 79.1519 147.48 52.5344 147.48 52.5344Z" fill="#30202D"/>
<path d="M102.996 60.0733C104.244 59.7765 105.776 59.6221 106.702 60.7025C106.952 60.9993 107.368 60.5719 107.118 60.287C106.049 59.0404 104.279 59.171 102.83 59.5034C102.462 59.5865 102.616 60.1682 102.984 60.0733H102.996Z" fill="#30202D"/>
<path d="M112.036 60.9993C113.758 60.9518 115.469 61.0112 117.179 61.1774C117.559 61.213 117.559 60.6194 117.179 60.5838C115.469 60.4176 113.746 60.3582 112.036 60.4057C111.656 60.4057 111.656 61.0112 112.036 60.9993Z" fill="#30202D"/>
</g>
<defs>
<clipPath id="clip0_5_125">
<rect width="224" height="269" fill="white"/>
</clipPath>
</defs>
</svg>
