<svg width="215" height="299" viewBox="0 0 215 299" fill="none" xmlns="http://www.w3.org/2000/svg">
<g clip-path="url(#clip0_5_85)">
<path d="M77.8545 29.0734C77.8545 29.0734 119.472 20.4662 113.613 36.9156C107.74 53.365 99.8542 56.6167 99.8542 56.6167L81.3728 49.198L77.8545 29.0871V29.0734Z" fill="#ED8D58"/>
<path d="M149.22 56.5894L184.54 40.2219L190.221 45.277L147.591 73.4077L149.22 56.5894Z" fill="#66393B"/>
<path d="M184.499 40.4268L185.799 30.2347C185.799 30.2347 187.757 29.8658 187.908 33.8006C188.058 37.7353 186.84 43.938 186.84 43.938L184.513 40.4268H184.499Z" fill="#FEC9A5"/>
<path d="M188.25 45.7415L199.681 45.6458C199.681 45.6458 201.351 44.143 198.805 43.5828C196.259 43.0227 193.589 42.968 193.589 42.968C193.589 42.968 203.966 40.1263 203.391 38.8283C202.816 37.5304 194.438 40.5908 194.438 40.5908C194.438 40.5908 203.528 34.1012 202.734 32.8579C201.94 31.6146 192.617 38.1589 192.617 38.1589C192.617 38.1589 198.928 31.1638 197.737 30.2621C196.546 29.3603 182.432 42.2712 182.185 42.6948C181.925 43.1183 188.25 45.7415 188.25 45.7415Z" fill="#FEC9A5"/>
<path d="M107.124 47.6542C107.124 47.6542 122.388 49.6762 127.48 50.3457C132.573 51.0151 148.631 54.8679 148.631 54.8679L183.089 39.7847L190.577 48.351L185.197 52.4633C185.197 52.4633 150.616 78.8999 145.181 78.1758C139.747 77.4517 132.628 76.509 132.628 76.509L143.648 146.87L101.401 147.826L108.328 48.8292" fill="#66393B"/>
<path d="M36.8395 249.365L17.2629 270.651L22.3145 279.395L45.0534 259.844L36.8395 249.365Z" fill="#784346"/>
<path d="M37.6199 265.842C38.674 267.153 39.7555 268.437 40.8507 269.708C53.0211 261.142 70.0376 248.121 81.3318 235.183C100.621 213.105 129.931 139.233 129.931 139.233C129.931 139.233 87.2184 105.296 81.674 114.709C77.5944 180.124 45.0398 230.948 27.7632 253.627C31.1446 257.617 34.3343 261.784 37.6199 265.842Z" fill="#F5BA93"/>
<path d="M14.2923 271.143L23.6973 280.87L23.6014 280.938C24.3544 282.387 31.8154 296.91 30.6791 298.863C29.4881 300.926 6.73547 277.277 6.73547 277.277L14.306 271.129L14.2923 271.143Z" fill="#302126"/>
<path d="M19.7957 266.675L27.421 278.165L23.6973 280.87L14.2924 271.143L19.7957 266.675Z" fill="#ED8D58"/>
<path d="M75.8148 49.485L32.363 55.6876L21.7396 69.6915C21.7396 69.6915 24.9841 74.9925 46.5457 71.2217" fill="#66393B"/>
<path d="M125.057 117.81C124.948 117.059 124.852 116.321 124.742 115.556C124.455 113.479 124.154 111.389 123.866 109.299C123.757 108.547 123.661 107.809 123.551 107.058C123.031 103.41 122.511 99.7896 121.95 96.2238C121.827 95.4723 121.717 94.7209 121.594 93.9832C121.156 91.1687 120.69 88.4089 120.197 85.7174C120.143 85.4305 120.088 85.1436 120.047 84.8431C120.813 84.4195 121.512 83.914 122.196 83.3539C120.663 77.3971 119.677 71.3037 119.061 65.1966C117.158 59.8957 114.68 54.745 110.943 50.5506C109.547 48.9931 107.863 47.5039 105.796 47.176V47.5996C105.796 47.5996 105.782 47.5586 105.755 47.5449C105.727 47.5039 105.672 47.4766 105.645 47.4356L90.682 48.6789L78.6212 49.6899C76.3487 51.2064 74.5553 53.3104 73.1315 55.9199C72.7208 56.6577 72.3512 57.4228 72.0226 58.2288C71.0644 60.4558 70.3525 62.956 69.8049 65.7158C69.6543 66.4536 69.5311 67.2323 69.4079 68.0111C69.0246 70.32 68.7781 72.7929 68.6139 75.3751C68.5591 76.1265 68.5317 76.8643 68.4906 77.643C68.3537 80.9083 68.3264 84.3512 68.4085 87.9034C68.4085 88.6548 68.4359 89.4199 68.4633 90.1714C68.5454 92.9721 68.6823 95.8276 68.8329 98.7103C68.874 99.4617 68.915 100.227 68.9561 100.978C69.1751 104.585 69.4079 108.233 69.6543 111.867C69.7091 112.619 69.7638 113.37 69.8049 114.135C69.9555 116.348 70.1061 118.562 70.243 120.761C70.284 121.526 70.3251 122.278 70.3662 123.043C70.4757 124.997 70.5715 126.95 70.6537 128.849L126.016 124.245C125.687 122.114 125.4 119.969 125.085 117.81H125.057Z" fill="#FAD7B9"/>
<path d="M92.6533 33.8826L93.5021 49.8812L102.401 49.1434L99.6899 36.615" fill="#784346"/>
<path d="M172.328 212.586L156.284 236.413L162.554 244.241L181.966 221.658L172.328 212.586Z" fill="#784346"/>
<path d="M105.713 33.2131C106.425 41.7657 106.863 42.968 96.7329 43.8151C91.3254 44.2659 86.5613 40.2492 86.1096 34.8526C85.6578 29.456 89.6826 24.7015 95.0901 24.2506C100.498 23.7998 105.262 27.8165 105.713 33.2131Z" fill="#784346"/>
<path d="M21.7395 69.6915L8.0907 19.3868L14.4976 18.2119L33.2117 56.1248L21.7395 69.6915Z" fill="#66393B"/>
<path d="M14.4976 18.2119L20.7539 10.0145C20.7539 10.0145 19.6177 8.37501 16.7428 11.0802C13.8679 13.7853 10.3633 19.0726 10.3633 19.0726L14.4976 18.1982V18.2119Z" fill="#FEC9A5"/>
<path d="M8.09068 19.3866L-5.58126e-05 11.2985C-5.58126e-05 11.2985 -0.136955 9.05788 2.08081 10.4378C4.29857 11.8313 6.24254 13.6621 6.24254 13.6621C6.24254 13.6621 0.848718 4.34438 2.16295 3.81155C3.49087 3.27872 7.31035 11.3668 7.31035 11.3668C7.31035 11.3668 5.39377 0.341316 6.83121 -0.000242341C8.26865 -0.328138 10.3084 10.8886 10.3084 10.8886C10.3084 10.8886 10.7328 1.44796 12.2113 1.63924C13.7035 1.83051 14.6618 20.9714 14.5386 21.4496C14.4154 21.9278 8.0633 19.3729 8.0633 19.3729L8.09068 19.3866Z" fill="#FEC9A5"/>
<path d="M90.6682 48.6789C91.2979 51.7529 93.3241 57.1359 99.8541 56.603C106.056 56.0839 106.384 51.2064 105.741 47.5449C105.713 47.5039 105.659 47.4766 105.631 47.4356L90.6682 48.6789Z" fill="#66393B"/>
<path d="M93.6526 33.8006C93.5568 33.8006 90.8051 31.3687 89.9153 34.511C89.0255 37.6534 91.9277 39.9623 94.4603 38.6644" fill="#66393B"/>
<path d="M102.127 22.8707C99.0875 22.7341 96.1305 21.7777 93.105 21.5591C90.0659 21.3405 86.6708 22.0783 84.9048 24.5375C83.4536 26.5595 83.4262 29.2647 83.7137 31.7376C84.0423 34.4154 84.6857 37.0932 86.0684 39.4158C88.0397 42.7494 91.3116 45.072 94.4877 47.2853C95.0079 47.6542 95.5692 48.0231 96.1989 48.0777C96.8287 48.1187 97.5542 47.6952 97.5679 47.053C97.5679 46.7115 97.3899 46.3972 97.1983 46.124C96.5138 45.0857 95.7061 44.1293 94.8026 43.2822C95.7745 43.4189 96.3495 44.3752 96.9792 45.1266C97.609 45.8781 98.7726 46.4792 99.4982 45.8371C100.224 45.1813 99.7309 43.938 99.0054 43.2822C98.2798 42.6264 97.3078 42.1073 97.0203 41.1782C97.7459 41.834 98.6905 42.4215 99.6488 42.2029C100.607 41.9843 101.127 40.4951 100.279 40.0033C100.566 40.6181 101.648 40.2765 101.798 39.6071C101.949 38.9376 101.511 38.2818 101.073 37.7627C100.443 37.0249 99.7309 36.3418 98.9643 35.7406C98.184 35.1258 97.3215 34.5657 96.7465 33.7596C96.1715 32.9535 95.9388 31.7786 96.5275 30.9725C96.0894 32.6256 95.09 34.1285 93.7211 35.1532C96.459 35.2215 98.7042 33.1038 100.593 31.1228C100.183 32.5846 99.3065 33.9235 98.1292 34.8936C100.799 34.3607 103.236 32.7349 104.741 30.4533C104.646 31.2731 104.303 32.0655 103.783 32.7076C105.125 31.8879 106.288 30.8085 107.206 29.5243C108.123 28.2537 108.78 26.5869 108.178 25.1387C107.26 22.9117 104.249 22.6931 101.853 22.8434" fill="#241520"/>
<path d="M67.4365 145.545C68.6549 164.33 92.5848 170.123 109.478 171.544L183.623 175.629L160.733 221.138C162.814 222.204 164.881 223.311 166.935 224.445C170.905 226.644 174.834 228.94 178.735 231.276C195.656 215.113 220.982 185.794 213.754 160.765C203.131 123.986 94.1044 118.261 94.1044 118.261L87.4374 117.906L84.015 117.715L70.0376 116.963C70.0376 116.963 66.2318 126.745 67.4502 145.517L67.4365 145.545Z" fill="#FAD7B9"/>
<path d="M153.573 236.14L164.785 243.695C165.826 244.952 176.23 257.549 175.546 259.693C174.82 261.961 147.522 243.709 147.522 243.709L153.573 236.126V236.14Z" fill="#302126"/>
<path d="M158.009 230.565L167.934 240.17L164.785 243.695L153.573 236.14L158.009 230.565Z" fill="#ED8D58"/>
<path d="M5.95508 20.4935L17.879 17.761L19.3712 22.092L34.1563 51.0971C34.1563 51.0971 69.8596 47.3809 74.1993 47.258C78.5253 47.135 86.3011 47.135 86.3011 47.135L78.5253 150.327C78.5253 150.327 57.4702 149.384 50.9949 146.228C44.5059 143.072 42.5482 140.517 42.5482 140.517L60.1397 73.9405C60.1397 73.9405 23.5055 75.9898 20.5211 74.2137C17.5367 72.4376 8.41926 26.6689 8.41926 26.6689L5.95508 20.4798V20.4935Z" fill="#66393B"/>
<path d="M85.1101 41.8067L76.6361 48.4329L83.2757 58.2698L76.1158 62.833L83.1114 93.382L86.7529 45.113C86.7529 45.113 88.3957 41.8887 89.7921 41.7247C91.1884 41.5608 85.1238 41.7931 85.1238 41.7931L85.1101 41.8067Z" fill="#824548"/>
<path d="M110.135 41.8477L118.815 49.7719L116.173 57.4638L124.14 63.3386L122.607 99.2022L107.37 44.1293L110.135 41.8477Z" fill="#824548"/>
<path d="M104.974 38.842C105.111 38.8146 110.053 36.9702 110.053 36.9702C110.053 36.9702 106.672 37.3801 105.672 34.1968C104.673 30.9998 103.017 37.5987 103.017 37.5987L104.961 38.842H104.974Z" fill="#784346"/>
<path d="M89.6142 41.6837C87.8619 40.9596 86.6024 39.2109 86.356 37.3391C86.1096 35.4537 86.8351 33.5 88.1631 32.1474C88.5738 31.7239 89.0529 31.355 89.6005 31.1364C90.4082 30.8085 91.3117 30.8085 92.1879 30.8085C93.242 30.8085 94.3372 30.8359 95.2818 31.314C96.4181 31.9015 97.1436 33.1175 97.4311 34.3607C97.7186 35.6177 97.6365 36.9156 97.5133 38.1999C97.4585 38.7873 97.4037 39.3748 97.1984 39.935C96.7329 41.2056 95.5282 42.1209 94.2277 42.4898C92.9271 42.8587 91.5308 42.7631 90.2028 42.4898" fill="#FAD7B9"/>
<path d="M111.491 59.4994C123.004 71.1261 129.164 87.0973 132.203 103.164C133.34 109.176 134.079 115.378 132.97 121.39C131.861 127.401 128.671 133.262 123.442 136.432C118.199 139.602 110.792 139.451 106.412 135.175C104.002 132.839 102.715 129.587 101.825 126.349C99.7857 118.903 99.5667 110.952 101.182 103.396C102.4 97.7403 104.605 92.3573 106.097 86.7831C107.589 81.2089 108.328 75.1974 106.576 69.6915" fill="#ED8D58"/>
<path d="M83.9054 55.8379C88.8611 57.7643 91.3938 63.6391 90.9694 68.9401C90.545 74.2411 87.7796 79.0502 84.7815 83.4495C80.5651 89.6522 75.7462 95.4587 70.4345 100.76C67.546 103.642 64.4931 106.402 62.0152 109.654C58.7433 113.957 56.5666 119.176 56.3202 124.573C56.0738 129.97 57.8535 135.53 61.5771 139.451C64.9175 142.963 69.5994 145.012 74.3772 145.804C78.402 146.474 82.6048 146.296 86.4791 145.012C94.7889 142.266 100.689 134.888 104.919 127.251C110.122 117.851 113.585 107.4 114.174 96.6746C114.762 85.9497 112.394 74.9652 106.726 65.8524" fill="#F59864"/>
<path d="M106.398 48.7608C96.8014 47.094 87.9029 41.6838 82.03 33.9372C80.7294 32.2294 79.5521 30.3987 77.8682 29.0734C76.2255 32.0518 76.0338 35.7816 77.3891 38.8966C74.61 40.2902 71.5161 42.1073 70.9959 45.1676C70.6947 46.9301 71.3518 48.7062 72.0774 50.3457C72.6524 51.6572 73.2958 52.9825 74.2952 54.0072C75.8695 55.633 78.1557 56.3707 80.3872 56.8353C88.0398 58.4747 96.1853 57.7916 103.468 54.9225" fill="#F59864"/>
<path d="M113.544 31.642C113.544 37.1342 92.4343 56.2205 77.7177 56.1795C84.3162 57.5594 92.5028 61.863 97.9924 67.6149C103.482 73.3667 107.165 81.5641 113.873 85.8404C114.899 75.4707 110.313 69.9921 113.38 63.5572C114.256 61.7127 115.515 60.0186 116.077 58.0512C116.734 55.7286 116.309 53.1055 114.941 51.1108C114.694 50.7419 114.393 50.332 114.516 49.9085C114.598 49.6216 114.845 49.4166 115.064 49.2254C117.309 47.1214 117.158 43.5145 116.268 40.5771C115.392 37.6397 113.941 34.7433 114.146 31.6829C114.146 31.6829 112.654 30.2621 113.53 31.642H113.544Z" fill="#FEA574"/>
<path d="M58.0042 146.993C56.156 146.023 54.2531 145.039 52.186 144.711C50.1188 144.37 47.8189 144.793 46.3677 146.296C45.9434 146.733 45.5874 147.28 45.4642 147.881C45.1904 149.302 46.2719 150.695 47.5998 151.256C48.9278 151.816 50.4337 151.761 51.8711 151.693C49.8039 154.316 48.654 157.65 48.6813 160.997C51.5836 160.218 54.1162 158.141 55.4578 155.45C55.1156 157.54 54.7597 159.631 54.4174 161.721C54.3216 162.308 54.2394 162.964 54.5817 163.442C55.0061 164.03 55.8959 164.071 56.5257 163.729C57.1554 163.388 57.5798 162.759 57.9357 162.144C58.7571 160.737 59.4416 159.248 59.9481 157.704C59.6059 159.726 59.9481 161.844 60.8791 163.661C61.3308 164.535 61.9879 165.382 62.9462 165.615C64.4932 165.984 65.9443 164.426 66.0812 162.841C66.2181 161.256 65.4652 159.767 64.7259 158.36C66.6014 159.672 68.8876 160.396 71.1739 160.409C72.2006 160.409 73.5696 159.863 73.3642 158.852C73.2684 158.374 72.8303 158.046 72.4196 157.786C70.8727 156.83 69.1614 156.133 67.3818 155.751C70.0376 155.587 72.6524 154.849 74.9933 153.592C75.9243 153.1 76.951 152.13 76.5266 151.174C76.2939 150.654 75.7189 150.381 75.1713 150.217C72.7893 149.479 70.0924 149.862 67.9978 151.215C71.7215 151.31 75.1302 147.799 74.8975 144.083C74.8838 143.823 74.8428 143.536 74.6374 143.359C74.2815 143.045 73.7339 143.277 73.3369 143.523L66.5877 147.635C67.3681 145.599 67.6282 143.372 67.3407 141.214C67.2585 140.558 67.0806 139.848 66.5604 139.438C65.7253 138.768 64.37 139.26 63.7813 140.162C63.1926 141.063 63.1516 142.197 63.1242 143.277C62.6587 140.203 61.4677 137.238 59.688 134.67C59.3868 134.232 58.8393 133.754 58.3875 134.041C58.1958 134.164 58.1 134.383 58.0315 134.588C57.3471 136.528 57.6209 138.782 58.7434 140.503C57.0596 139.984 56.4983 137.238 54.746 137.347C53.6371 137.429 52.9937 138.768 53.2127 139.861C53.4317 140.954 54.2121 141.829 54.8966 142.703C55.5811 143.577 56.2519 144.588 56.156 145.695" fill="#FEA574"/>
<path d="M112.942 141.323C112.011 138.126 110.601 135.066 108.766 132.279C107.986 131.09 106.59 129.819 105.357 130.53C104.851 130.817 104.563 131.391 104.399 131.964C103.838 133.945 104.522 136.104 105.727 137.785C106.918 139.451 108.588 140.736 110.217 141.979C107.945 141.296 105.618 140.613 103.249 140.722C100.881 140.831 98.4167 141.883 97.2531 143.946C100.73 145.203 104.591 145.449 108.191 144.616C103.687 146.337 98.8685 149.534 98.6083 154.343C102.606 152.513 106.275 149.985 109.41 146.911C107.288 149.753 105.796 153.045 105.056 156.502C104.919 157.144 104.837 157.909 105.275 158.387C106.165 159.357 107.698 158.141 108.328 156.994C109.67 154.562 110.614 151.898 111.094 149.165C110.697 152.854 110.546 157.199 113.393 159.59C113.626 159.781 113.9 159.959 114.201 159.918C114.557 159.849 114.762 159.48 114.899 159.139C116.145 155.996 115.926 152.308 114.297 149.343C114.516 152.991 117.268 156.352 120.813 157.294C119.896 154.07 118.185 151.064 115.885 148.605C119.266 149.93 122.757 151.01 126.303 151.843C126.768 151.952 127.275 152.048 127.699 151.829C128.74 151.269 128.055 149.657 127.179 148.851C124.975 146.829 122.182 145.449 119.225 144.957C121.881 145.695 124.866 145.039 126.974 143.263C127.686 142.662 128.343 141.747 128.028 140.872C127.713 140.012 126.645 139.711 125.728 139.643C122.949 139.41 120.115 140.039 117.706 141.446C122.032 139.315 124.907 134.547 124.77 129.737C124.756 129.218 124.674 128.631 124.277 128.303C123.606 127.743 122.593 128.248 121.895 128.767C117.843 131.841 114.475 135.804 112.093 140.285" fill="#F59864"/>
<path d="M100.498 22.5975C100.498 22.5975 93.9402 21.7231 93.4747 26.4913C93.0092 31.2594 92.667 37.749 92.667 37.749C92.667 37.749 90.7915 38.4185 90.682 34.9619C90.5724 31.5053 88.916 22.2696 94.7752 21.4908C100.635 20.7121 100.498 22.5975 100.498 22.5975Z" fill="#F5BA93"/>
</g>
<defs>
<clipPath id="clip0_5_85">
<rect width="215" height="299" fill="white"/>
</clipPath>
</defs>
</svg>
